<?xml version="1.0" encoding="iso-8859-1"?>
<!-- Generator: Adobe Illustrator 19.0.0, SVG Export Plug-In . SVG Version: 6.00 Build 0)  -->
<svg version="1.1" id="Layer_1" xmlns="http://www.w3.org/2000/svg" xmlns:xlink="http://www.w3.org/1999/xlink" x="0px" y="0px"
	 viewBox="0 0 508.5 508.5" style="enable-background:new 0 0 508.5 508.5;" xml:space="preserve">
<g>
	<path d="M108.391,179.063l0.049,0.483c2.077,15.582,14.011,27.834,29.005,30.777C143.855,269.523,193.971,315,254.25,315
		c60.245,0,110.339-45.433,116.795-104.583c15.191-2.769,27.365-15.118,29.465-30.871l2.933-43.008
		c1.153-9.202-1.681-18.463-7.795-25.447c-6.049-6.91-14.733-10.931-23.898-11.087V77.5c0-42.734-34.766-77.5-77.5-77.5h-80
		c-42.734,0-77.5,34.766-77.5,77.5v22.516c-8.999,0.277-17.498,4.279-23.448,11.076c-6.115,6.984-8.948,16.245-7.795,25.447
		L108.391,179.063z M124.587,120.972c3.323-3.795,8.122-5.972,13.167-5.972h13.996V77.5c0-34.462,28.038-62.5,62.5-62.5h80
		c34.462,0,62.5,28.038,62.5,62.5V115h14.445c5.045,0,9.844,2.177,13.167,5.973c3.323,3.795,4.846,8.84,4.18,13.84l-2.931,42.974
		c-1.169,8.108-6.905,14.624-14.361,17.111V170.5h-15v33h0.32c-3.122,54.145-47.985,96.5-102.32,96.5
		c-54.469,0-99.425-42.565-102.346-96.903L151.473,196h-0.223v-25.5h-15v23.857c-6.741-2.812-11.82-8.997-12.912-16.571
		l-2.882-42.49l-0.049-0.483C119.741,129.813,121.264,124.768,124.587,120.972z"/>
	<path d="M460.861,370.553l-120.816-40.829c-8.251-2.789-13.795-10.514-13.795-19.224h-15c0,11.49,5.556,21.986,14.498,28.506
		C308.688,349.644,282.536,356,254.25,356c-28.286,0-54.438-6.356-71.499-16.994c8.943-6.52,14.499-17.016,14.499-28.506h-15
		c0,8.709-5.544,16.435-13.795,19.224l-120.816,40.83C20.191,379.829,1.75,405.527,1.75,434.5v74h15v-74
		c0-22.534,14.343-42.522,35.692-49.737l114.436-38.674C186.003,361.538,218.892,371,254.25,371c35.358,0,68.247-9.462,87.371-24.91
		l114.437,38.673c21.348,7.215,35.691,27.203,35.691,49.737v74h15v-74C506.75,405.527,488.309,379.829,460.861,370.553z"/>
	<rect x="251.28" y="89" transform="matrix(-0.6126 0.7904 -0.7904 -0.6126 522.2858 -63.0026)" width="50.606" height="15"/>
	<rect x="291.947" y="89" transform="matrix(-0.6126 0.7904 -0.7904 -0.6126 587.8634 -95.146)" width="50.606" height="15"/>
	<rect x="210.613" y="89" transform="matrix(-0.6126 0.7904 -0.7904 -0.6126 456.7073 -30.8588)" width="50.606" height="15"/>
	<rect x="187.75" y="71.197" transform="matrix(0.7904 0.6126 -0.6126 0.7904 100.0319 -99.3783)" width="15" height="50.606"/>
	<rect x="247.25" y="413.5" width="15" height="15"/>
	<rect x="247.25" y="443.5" width="15" height="15"/>
	<rect x="247.25" y="383.5" width="15" height="15"/>
</g>
<g>
</g>
<g>
</g>
<g>
</g>
<g>
</g>
<g>
</g>
<g>
</g>
<g>
</g>
<g>
</g>
<g>
</g>
<g>
</g>
<g>
</g>
<g>
</g>
<g>
</g>
<g>
</g>
<g>
</g>
</svg>
