<?xml version="1.0" encoding="iso-8859-1"?>
<!-- Generator: Adobe Illustrator 19.0.0, SVG Export Plug-In . SVG Version: 6.00 Build 0)  -->
<svg version="1.1" id="Layer_1" xmlns="http://www.w3.org/2000/svg" xmlns:xlink="http://www.w3.org/1999/xlink" x="0px" y="0px"
	 viewBox="0 0 505 505" style="enable-background:new 0 0 505 505;" xml:space="preserve">
<g>
	<path d="M0,358.5h233V270H118v17.269L72.801,252.5L118,217.731V235h115v-88.5H0V358.5z M15,161.5h203V220h-85v-32.731L48.199,252.5
		L133,317.731V285h85v58.5H15V161.5z"/>
	<rect x="126.5" y="243" width="15" height="15"/>
	<rect x="156.5" y="243" width="15" height="15"/>
	<rect x="186.5" y="243" width="15" height="15"/>
	<rect x="216.5" y="243" width="15" height="15"/>
	<rect x="336.5" y="243" width="15" height="15"/>
	<rect x="366.5" y="243" width="15" height="15"/>
	<rect x="306.5" y="243" width="15" height="15"/>
	<rect x="276.5" y="243" width="15" height="15"/>
	<rect x="246.5" y="243" width="15" height="15"/>
	<path d="M272,146.5V235h115v-17.269l45.199,34.769L387,287.269V270H272v88.5h233v-212H272z M490,343.5H287V285h85v32.731
		l84.801-65.231L372,187.269V220h-85v-58.5h203V343.5z"/>
</g>
<g>
</g>
<g>
</g>
<g>
</g>
<g>
</g>
<g>
</g>
<g>
</g>
<g>
</g>
<g>
</g>
<g>
</g>
<g>
</g>
<g>
</g>
<g>
</g>
<g>
</g>
<g>
</g>
<g>
</g>
</svg>
