<?xml version="1.0" encoding="iso-8859-1"?>
<!-- Generator: Adobe Illustrator 19.0.0, SVG Export Plug-In . SVG Version: 6.00 Build 0)  -->
<svg version="1.1" id="Layer_1" xmlns="http://www.w3.org/2000/svg" xmlns:xlink="http://www.w3.org/1999/xlink" x="0px" y="0px"
	 viewBox="0 0 505 505" style="enable-background:new 0 0 505 505;" xml:space="preserve">
<g>
	<path d="M29.25,0v65v15v425h342.106L475.75,400.606V80V65V0H29.25z M44.25,80h69.5v410h-69.5V80z M375.75,479.394V405h74.394
		L375.75,479.394z M460.75,390h-100v100h-232V80h332V390z M44.25,65V15h416.5v50H44.25z"/>
	<rect x="63.75" y="168" width="32" height="15"/>
	<rect x="63.75" y="223.75" width="32" height="15"/>
	<rect x="63.75" y="279.5" width="32" height="15"/>
	<rect x="63.75" y="335.25" width="32" height="15"/>
	<rect x="63.75" y="391" width="32" height="15"/>
	<rect x="145.25" y="168" width="285.5" height="15"/>
	<rect x="145.25" y="223.75" width="285.5" height="15"/>
	<rect x="145.25" y="279.5" width="285.5" height="15"/>
	<rect x="145.25" y="335.25" width="285.5" height="15"/>
	<rect x="145.25" y="391" width="198.5" height="15"/>
	<rect x="243.25" y="33" width="15" height="15"/>
	<rect x="198.25" y="33" width="15" height="15"/>
	<rect x="288.25" y="33" width="15" height="15"/>
	<rect x="153.25" y="33" width="15" height="15"/>
	<rect x="63.25" y="33" width="15" height="15"/>
	<rect x="108.25" y="33" width="15" height="15"/>
	<rect x="333.25" y="33" width="15" height="15"/>
	<rect x="378.25" y="33" width="15" height="15"/>
	<rect x="423.25" y="33" width="15" height="15"/>
</g>
<g>
</g>
<g>
</g>
<g>
</g>
<g>
</g>
<g>
</g>
<g>
</g>
<g>
</g>
<g>
</g>
<g>
</g>
<g>
</g>
<g>
</g>
<g>
</g>
<g>
</g>
<g>
</g>
<g>
</g>
</svg>
