<?xml version="1.0" encoding="iso-8859-1"?>
<!-- Generator: Adobe Illustrator 19.0.0, SVG Export Plug-In . SVG Version: 6.00 Build 0)  -->
<svg version="1.1" id="Layer_1" xmlns="http://www.w3.org/2000/svg" xmlns:xlink="http://www.w3.org/1999/xlink" x="0px" y="0px"
	 viewBox="0 0 506.617 506.617" style="enable-background:new 0 0 506.617 506.617;" xml:space="preserve">
<g>
	<path d="M252.481,442.127C227.301,424.322,98.725,332.932,55.378,292.84c-25.33-23.429-39.661-55.86-40.353-91.321
		c-0.729-37.403,14.056-74.057,40.563-100.564c52.911-52.91,138.969-52.962,191.938-0.149l5.092,5.728l5.624-5.512
		c52.942-51.888,138.667-51.45,191.089,0.973c48.604,48.604,54.321,126.866,13.018,178.171l11.684,9.406
		c22.424-27.854,33.275-63.589,30.554-100.623c-2.707-36.829-18.563-71.476-44.647-97.561
		c-28.297-28.296-65.917-43.983-105.93-44.17c-0.242-0.001-0.482-0.001-0.724-0.001c-37.289,0-72.584,13.474-100.24,38.134
		c-27.812-25.318-63.548-39.178-101.413-39.178c-40.287,0-78.163,15.688-106.651,44.176C15.606,119.724-0.779,160.351,0.029,201.811
		C0.8,241.389,16.84,277.627,45.193,303.851c48.631,44.98,196.677,149.164,202.956,153.577l4.293,3.018l4.307-3
		c0.274-0.191,27.868-19.423,62.866-44.639l-8.768-12.17C284.014,419.97,261.553,435.77,252.481,442.127z"/>
	<path d="M506.617,303.083l-78.508-11.408L393,220.535l-35.109,71.14l-78.508,11.408l56.809,55.375l-13.411,78.19L393,399.731
		l70.22,36.917l-13.411-78.19L506.617,303.083z M393,382.785l-50.298,26.443l9.606-56.007l-40.691-39.665l56.234-8.171L393,254.429
		l25.148,50.957l56.234,8.171l-40.691,39.665l9.606,56.007L393,382.785z"/>
	<rect x="313.5" y="247.982" width="15" height="15"/>
	<rect x="440.5" y="247.982" width="15" height="15"/>
	<rect x="293.5" y="358.982" width="15" height="15"/>
	<polygon points="398,312.482 383,312.482 383,327.982 367.5,327.982 367.5,342.982 383,342.982 383,358.482 398,358.482 
		398,342.982 413.5,342.982 413.5,327.982 398,327.982 	"/>
</g>
<g>
</g>
<g>
</g>
<g>
</g>
<g>
</g>
<g>
</g>
<g>
</g>
<g>
</g>
<g>
</g>
<g>
</g>
<g>
</g>
<g>
</g>
<g>
</g>
<g>
</g>
<g>
</g>
<g>
</g>
</svg>
