<?xml version="1.0" encoding="iso-8859-1"?>
<!-- Generator: Adobe Illustrator 19.0.0, SVG Export Plug-In . SVG Version: 6.00 Build 0)  -->
<svg version="1.1" id="Layer_1" xmlns="http://www.w3.org/2000/svg" xmlns:xlink="http://www.w3.org/1999/xlink" x="0px" y="0px"
	 viewBox="0 0 501.294 501.294" style="enable-background:new 0 0 501.294 501.294;" xml:space="preserve">
<g>
	<path d="M236.667,126.294c-36.954,0-71.696,14.391-97.826,40.521l-98.306,98.306c-53.941,53.941-53.941,141.711,0,195.652
		c26.13,26.13,60.872,40.521,97.826,40.521c36.954,0,71.696-14.391,97.826-40.521l98.306-98.306
		c26.13-26.13,40.521-60.873,40.521-97.826s-14.391-71.696-40.521-97.826S273.62,126.294,236.667,126.294z M225.581,450.167
		c-23.297,23.297-54.272,36.127-87.219,36.127s-63.922-12.83-87.22-36.127h0c-48.093-48.093-48.093-126.346,0-174.439l86.063-86.063
		l64.324,64.324l-21.355,21.355c-12.49,12.49-12.49,32.813,0,45.303c6.245,6.245,14.448,9.368,22.651,9.368
		c8.203,0,16.406-3.123,22.651-9.368l21.355-21.355l64.812,64.813L225.581,450.167z M214.87,310.04
		c-3.217,3.217-7.495,4.989-12.045,4.989c-4.55,0-8.827-1.771-12.044-4.989s-4.989-7.495-4.989-12.045s1.771-8.828,4.989-12.045
		l53.201-53.201c3.217-3.217,7.495-4.989,12.045-4.989c4.55,0,8.827,1.772,12.044,4.989s4.989,7.495,4.989,12.045
		s-1.771,8.828-4.989,12.045L214.87,310.04z M323.886,351.861l-1.636,1.636l-64.812-64.813l21.239-21.239
		c12.49-12.49,12.49-32.813,0-45.303c-12.49-12.49-32.812-12.491-45.302,0l-21.24,21.24l-64.324-64.324l1.636-1.636
		c23.297-23.297,54.272-36.127,87.219-36.127s63.922,12.83,87.22,36.127s36.127,54.272,36.127,87.22
		S347.184,328.563,323.886,351.861z"/>
	<rect x="396.143" y="85.785" transform="matrix(-0.689 -0.7248 0.7248 -0.689 614.1475 450.1009)" width="15" height="15"/>
	<rect x="374.4" y="106.456" transform="matrix(-0.689 -0.7248 0.7248 -0.689 562.4431 469.2554)" width="15" height="15"/>
	<rect x="352.658" y="127.126" transform="matrix(0.689 0.7248 -0.7248 0.689 209.5763 -219.1577)" width="15" height="15"/>
	<rect x="461.37" y="23.774" transform="matrix(-0.689 -0.7248 0.7248 -0.689 769.2598 392.636)" width="15" height="15"/>
	<rect x="439.627" y="44.444" transform="matrix(0.7247 -0.689 0.689 0.7247 87.2871 322.3808)" width="15" height="15"/>
	<rect x="483.112" y="3.103" transform="matrix(0.689 0.7248 -0.7248 0.689 160.2604 -352.2746)" width="15" height="15"/>
	<rect x="417.885" y="65.115" transform="matrix(0.689 0.7248 -0.7248 0.689 184.9184 -285.7162)" width="15" height="15"/>
	<rect x="287.222" y="64.794" width="15" height="15"/>
	<rect x="287.222" y="94.794" width="15" height="15"/>
	<rect x="287.222" y="4.794" width="15" height="15"/>
	<rect x="287.222" y="34.794" width="15" height="15"/>
	<rect x="452.722" y="224.294" width="15" height="15"/>
	<rect x="482.722" y="224.294" width="15" height="15"/>
	<rect x="422.722" y="224.294" width="15" height="15"/>
	<rect x="392.722" y="224.294" width="15" height="15"/>
</g>
<g>
</g>
<g>
</g>
<g>
</g>
<g>
</g>
<g>
</g>
<g>
</g>
<g>
</g>
<g>
</g>
<g>
</g>
<g>
</g>
<g>
</g>
<g>
</g>
<g>
</g>
<g>
</g>
<g>
</g>
</svg>
