<?xml version="1.0" encoding="iso-8859-1"?>
<!-- Generator: Adobe Illustrator 19.0.0, SVG Export Plug-In . SVG Version: 6.00 Build 0)  -->
<svg version="1.1" id="Layer_1" xmlns="http://www.w3.org/2000/svg" xmlns:xlink="http://www.w3.org/1999/xlink" x="0px" y="0px"
	 viewBox="0 0 507.119 507.119" style="enable-background:new 0 0 507.119 507.119;" xml:space="preserve">
<g>
	<path d="M276.405,20.222L104.079,146.79H41.537c-21.78,0-39.5,17.72-39.5,39.5v136c0,21.78,17.72,39.5,39.5,39.5h62.542
		l172.327,126.567c1.92,10.472,11.114,18.433,22.132,18.433h54.5v-505h-54.5C287.52,1.79,278.326,9.75,276.405,20.222z
		 M338.037,491.79h-39.5c-4.136,0-7.5-3.364-7.5-7.5v-3.797V88.29h-15v381.186l-162-118.983V188.29h-15v158.5h-57.5
		c-13.509,0-24.5-10.991-24.5-24.5v-136c0-13.509,10.991-24.5,24.5-24.5h67.458L291.037,28.086V24.29c0-4.136,3.364-7.5,7.5-7.5
		h39.5V491.79z"/>
	<rect x="307.037" y="306.79" width="15" height="15"/>
	<rect x="307.037" y="276.79" width="15" height="15"/>
	<rect x="307.037" y="216.79" width="15" height="15"/>
	<rect x="307.037" y="186.79" width="15" height="15"/>
	<rect x="307.037" y="246.79" width="15" height="15"/>
	<rect x="386.574" y="68.244" transform="matrix(0.5447 0.8386 -0.8386 0.5447 242.93 -295.9913)" width="15" height="15"/>
	<rect x="487.207" y="2.875" transform="matrix(0.5447 0.8386 -0.8386 0.5447 233.926 -410.1436)" width="15" height="15"/>
	<rect x="411.732" y="51.902" transform="matrix(0.5447 0.8386 -0.8386 0.5447 240.6789 -324.5294)" width="15" height="15"/>
	<rect x="436.891" y="35.56" transform="matrix(0.5447 0.8386 -0.8386 0.5447 238.4281 -353.0674)" width="15" height="15"/>
	<rect x="462.049" y="19.217" transform="matrix(-0.5447 -0.8386 0.8386 -0.5447 702.9206 435.0401)" width="15" height="15"/>
	<rect x="436.891" y="126.56" transform="matrix(0.5447 0.8386 -0.8386 0.5447 314.7418 -311.6378)" width="15" height="15"/>
	<rect x="386.574" y="159.244" transform="matrix(0.5447 0.8386 -0.8386 0.5447 319.2437 -254.5617)" width="15" height="15"/>
	<rect x="462.049" y="110.217" transform="matrix(-0.5447 -0.8386 0.8386 -0.5447 626.6069 575.6105)" width="15" height="15"/>
	<rect x="487.207" y="93.875" transform="matrix(-0.5447 -0.8386 0.8386 -0.5447 679.1744 571.4641)" width="15" height="15"/>
	<rect x="411.732" y="142.902" transform="matrix(0.5447 0.8386 -0.8386 0.5447 316.9926 -283.0998)" width="15" height="15"/>
	<rect x="459.801" y="472.902" transform="matrix(-0.8386 -0.5448 0.5448 -0.8386 597.4786 1137.8285)" width="15" height="15"/>
	<rect x="434.643" y="456.56" transform="matrix(-0.8386 -0.5447 0.5447 -0.8386 560.1423 1094.0739)" width="15" height="15"/>
	<rect x="484.959" y="489.244" transform="matrix(-0.8386 -0.5448 0.5448 -0.8386 634.8318 1181.5803)" width="15" height="15"/>
	<rect x="384.327" y="423.875" transform="matrix(-0.8386 -0.5447 0.5447 -0.8386 485.4343 1006.5707)" width="15" height="15"/>
	<rect x="409.485" y="440.217" transform="matrix(-0.8386 -0.5447 0.5447 -0.8386 522.7883 1050.3223)" width="15" height="15"/>
	<rect x="459.801" y="381.902" transform="matrix(-0.8386 -0.5448 0.5448 -0.8386 647.0511 970.5162)" width="15" height="15"/>
	<rect x="484.959" y="398.244" transform="matrix(-0.8386 -0.5448 0.5448 -0.8386 684.4044 1014.268)" width="15" height="15"/>
	<rect x="409.485" y="349.217" transform="matrix(-0.8386 -0.5447 0.5447 -0.8386 572.3587 883.0086)" width="15" height="15"/>
	<rect x="434.643" y="365.56" transform="matrix(-0.8386 -0.5447 0.5447 -0.8386 609.7128 926.7601)" width="15" height="15"/>
	<rect x="384.327" y="332.875" transform="matrix(-0.8386 -0.5447 0.5447 -0.8386 535.0047 839.2571)" width="15" height="15"/>
	<rect x="483.533" y="248.697" transform="matrix(1 0.0093 -0.0093 1 2.4064 -4.5603)" width="15" height="15"/>
	<rect x="453.534" y="248.418" transform="matrix(1 0.0093 -0.0093 1 2.4026 -4.2812)" width="15" height="15"/>
	<rect x="423.535" y="248.139" transform="matrix(-1 -0.0093 0.0093 -1 859.6722 515.2791)" width="15" height="15"/>
	<rect x="393.537" y="247.86" transform="matrix(-1 -0.0093 0.0093 -1 799.679 514.4413)" width="15" height="15"/>
</g>
<g>
</g>
<g>
</g>
<g>
</g>
<g>
</g>
<g>
</g>
<g>
</g>
<g>
</g>
<g>
</g>
<g>
</g>
<g>
</g>
<g>
</g>
<g>
</g>
<g>
</g>
<g>
</g>
<g>
</g>
</svg>
