<?xml version="1.0" encoding="iso-8859-1"?>
<!-- Generator: Adobe Illustrator 19.0.0, SVG Export Plug-In . SVG Version: 6.00 Build 0)  -->
<svg version="1.1" id="Layer_1" xmlns="http://www.w3.org/2000/svg" xmlns:xlink="http://www.w3.org/1999/xlink" x="0px" y="0px"
	 viewBox="0 0 506 506" style="enable-background:new 0 0 506 506;" xml:space="preserve">
<g>
	<polygon points="252.701,85.035 148.41,209.25 187.921,209.25 187.921,473.75 202.921,473.75 202.921,194.25 180.59,194.25 
		252.614,108.465 323.564,194.25 302.395,194.25 302.395,473.75 317.395,473.75 317.395,209.25 355.436,209.25 	"/>
	<rect x="302.395" y="487.75" width="15" height="15"/>
	<rect x="187.921" y="487.75" width="15" height="15"/>
	<path d="M472.75,147.78c-20.927-21-48.577-32.836-78.115-33.5C370.19,47.643,306.919,3.25,235.5,3.25
		c-44.699,0-86.875,17.248-118.759,48.566C86.278,81.739,68.479,121.27,66.249,163.676c-17.815,5.041-33.878,15.541-45.7,29.981
		C7.282,209.862-0.016,230.34,0,251.32c0.038,50.139,41.387,90.93,92.174,90.93h51.247c16.267,0,29.5-13.234,29.5-29.5
		s-13.233-29.5-29.5-29.5H130.5v15h12.921c7.995,0,14.5,6.505,14.5,14.5s-6.505,14.5-14.5,14.5H92.174
		c-42.522,0-77.142-34.067-77.174-75.941c-0.027-35.683,25.249-66.964,60.101-74.38l5.824-1.239l0.114-5.953
		C82.637,86.206,151.928,18.25,235.5,18.25c66.764,0,125.714,42.555,146.69,105.892l1.749,5.279l5.56-0.14
		c0.831-0.021,1.665-0.032,2.501-0.032c26.509,0,51.413,10.341,70.125,29.119c18.712,18.776,28.966,43.718,28.874,70.232
		c-0.188,54.396-45.117,98.649-100.155,98.649h-28.949c-7.995,0-14.5-6.505-14.5-14.5s6.505-14.5,14.5-14.5H372.5v-15h-10.605
		c-16.267,0-29.5,13.234-29.5,29.5s13.233,29.5,29.5,29.5h28.949c63.28,0,114.939-50.959,115.155-113.598
		C506.105,198.122,494.297,169.401,472.75,147.78z"/>
	<rect x="389.5" y="283.25" width="16" height="15"/>
	<rect x="97.5" y="283.25" width="16" height="15"/>
	<rect x="246" y="365.75" width="15" height="15"/>
	<rect x="246" y="395.75" width="15" height="15"/>
	<rect x="246" y="425.75" width="15" height="15"/>
	<rect x="246" y="335.75" width="15" height="15"/>
	<rect x="246" y="455.75" width="15" height="15"/>
	<rect x="246" y="485.75" width="15" height="15"/>
	<rect x="246" y="215.75" width="15" height="15"/>
	<rect x="246" y="185.75" width="15" height="15"/>
	<rect x="246" y="305.75" width="15" height="15"/>
	<rect x="246" y="155.75" width="15" height="15"/>
	<rect x="246" y="275.75" width="15" height="15"/>
	<rect x="246" y="245.75" width="15" height="15"/>
</g>
<g>
</g>
<g>
</g>
<g>
</g>
<g>
</g>
<g>
</g>
<g>
</g>
<g>
</g>
<g>
</g>
<g>
</g>
<g>
</g>
<g>
</g>
<g>
</g>
<g>
</g>
<g>
</g>
<g>
</g>
</svg>
