<?xml version="1.0" encoding="iso-8859-1"?>
<!-- Generator: Adobe Illustrator 19.0.0, SVG Export Plug-In . SVG Version: 6.00 Build 0)  -->
<svg version="1.1" id="Layer_1" xmlns="http://www.w3.org/2000/svg" xmlns:xlink="http://www.w3.org/1999/xlink" x="0px" y="0px"
	 viewBox="0 0 505 505" style="enable-background:new 0 0 505 505;" xml:space="preserve">
<g>
	<path d="M420.5,101.995v15H490v28H388.5v15H490v279.5c0,9.649-7.851,17.5-17.5,17.5h-440c-9.649,0-17.5-7.851-17.5-17.5v-279.5
		h273.5v-15H15v-65h162.616l41,37H288.5v-15h-64.116l-41-37H0v80v4.5v290c0,17.92,14.579,32.5,32.5,32.5h440
		c17.921,0,32.5-14.58,32.5-32.5v-290v-4.5v-43H420.5z"/>
	<rect x="30" y="426.995" width="15" height="15"/>
	<rect x="30" y="268.995" width="15" height="15.8"/>
	<rect x="30" y="237.396" width="15" height="15.8"/>
	<rect x="30" y="205.796" width="15" height="15.8"/>
	<rect x="30" y="300.596" width="15" height="15.8"/>
	<rect x="30" y="363.796" width="15" height="15.8"/>
	<rect x="30" y="395.396" width="15" height="15.8"/>
	<rect x="30" y="332.196" width="15" height="15.8"/>
	<rect x="30" y="174.995" width="15" height="15"/>
	<rect x="429.259" y="174.995" width="15.37" height="15"/>
	<rect x="398.519" y="174.995" width="15.37" height="15"/>
	<rect x="244.814" y="174.995" width="15.37" height="15"/>
	<rect x="214.074" y="174.995" width="15.37" height="15"/>
	<rect x="183.333" y="174.995" width="15.37" height="15"/>
	<rect x="152.593" y="174.995" width="15.37" height="15"/>
	<rect x="121.852" y="174.995" width="15.37" height="15"/>
	<rect x="91.111" y="174.995" width="15.37" height="15"/>
	<rect x="60.37" y="174.995" width="15.37" height="15"/>
	<rect x="460" y="174.995" width="15" height="15"/>
	<rect x="460" y="395.395" width="15" height="15.8"/>
	<rect x="460" y="332.195" width="15" height="15.8"/>
	<rect x="460" y="300.595" width="15" height="15.8"/>
	<rect x="460" y="237.395" width="15" height="15.8"/>
	<rect x="460" y="205.795" width="15" height="15.8"/>
	<rect x="460" y="268.995" width="15" height="15.8"/>
	<rect x="460" y="363.795" width="15" height="15.8"/>
	<rect x="460" y="426.995" width="15" height="15"/>
	<rect x="429.26" y="426.995" width="15.37" height="15"/>
	<rect x="398.519" y="426.995" width="15.37" height="15"/>
	<rect x="244.815" y="426.995" width="15.37" height="15"/>
	<rect x="276.13" y="426.995" width="15.37" height="15"/>
	<rect x="214.074" y="426.995" width="15.37" height="15"/>
	<rect x="183.334" y="426.995" width="15.37" height="15"/>
	<rect x="152.593" y="426.995" width="15.37" height="15"/>
	<rect x="121.853" y="426.995" width="15.37" height="15"/>
	<rect x="91.111" y="426.995" width="15.37" height="15"/>
	<rect x="60.371" y="426.995" width="15.37" height="15"/>
	<path d="M338,438.495c20.402,0,37-16.598,37-37v-282h-15v282c0,12.131-9.869,22-22,22s-22-9.869-22-22v-292.5
		c0-12.131,9.869-22,22-22v-15c-20.402,0-37,16.598-37,37v292.5C301,421.897,317.598,438.495,338,438.495z"/>
	<rect x="331" y="329.495" width="15" height="15"/>
	<rect x="331" y="299.495" width="15" height="15"/>
	<rect x="331" y="389.495" width="15" height="15"/>
	<rect x="331" y="359.495" width="15" height="15"/>
	<rect x="331" y="239.495" width="15" height="15"/>
	<rect x="331" y="149.495" width="15" height="15"/>
	<rect x="331" y="119.495" width="15" height="15"/>
	<rect x="331" y="179.495" width="15" height="15"/>
	<rect x="331" y="209.495" width="15" height="15"/>
	<rect x="331" y="269.495" width="15" height="15"/>
	<path d="M372.042,113.002c3.187,0,6.424-0.566,9.566-1.753l42.618-16.088c8.535-3.222,15.318-9.95,18.609-18.458
		c3.291-8.509,2.802-18.05-1.343-26.176c-4.145-8.127-11.58-14.125-20.4-16.457c-8.822-2.333-18.251-0.792-25.868,4.225
		l-38.048,25.051c-11.528,7.591-15.492,22.588-9.222,34.885C352.7,107.534,362.136,113.002,372.042,113.002z M365.426,75.874
		l38.047-25.051c2.847-1.874,6.062-2.835,9.35-2.835c1.474,0,2.962,0.193,4.437,0.583c4.77,1.261,8.63,4.375,10.871,8.771
		c2.242,4.395,2.496,9.349,0.716,13.95c-1.779,4.601-5.302,8.094-9.916,9.836l-42.618,16.088c-5.756,2.172-12.2-0.323-14.993-5.8
		C358.524,85.937,360.29,79.256,365.426,75.874z"/>
</g>
<g>
</g>
<g>
</g>
<g>
</g>
<g>
</g>
<g>
</g>
<g>
</g>
<g>
</g>
<g>
</g>
<g>
</g>
<g>
</g>
<g>
</g>
<g>
</g>
<g>
</g>
<g>
</g>
<g>
</g>
</svg>
