<?xml version="1.0" encoding="iso-8859-1"?>
<!-- Generator: Adobe Illustrator 19.0.0, SVG Export Plug-In . SVG Version: 6.00 Build 0)  -->
<svg version="1.1" id="Layer_1" xmlns="http://www.w3.org/2000/svg" xmlns:xlink="http://www.w3.org/1999/xlink" x="0px" y="0px"
	 viewBox="0 0 503.303 503.303" style="enable-background:new 0 0 503.303 503.303;" xml:space="preserve">
<g>
	<path d="M416.054,106.401c-40.027-40.027-92.08-63.653-148.01-67.523l28.272-28.272L285.709,0l-47.303,47.303l47.303,47.303
		L296.315,84l-30.204-30.204c113.213,7.468,203.041,101.938,203.041,217.008c0,119.93-97.57,217.5-217.5,217.5
		s-217.5-97.57-217.5-217.5c0-4.824,0.16-9.701,0.475-14.495l-14.968-0.984c-0.336,5.121-0.507,10.329-0.507,15.479
		c0,62.103,24.184,120.489,68.098,164.402s102.299,68.098,164.402,68.098s120.489-24.184,164.402-68.098
		s68.098-102.299,68.098-164.402S459.968,150.314,416.054,106.401z"/>
	<path d="M72.118,147.989l-12.373-8.479c-2.913,4.25-5.716,8.646-8.331,13.067l12.91,7.638
		C66.77,156.079,69.393,151.966,72.118,147.989z"/>
	<path d="M90.055,125.223l-11.142-10.044c-3.444,3.821-6.805,7.807-9.987,11.846l11.782,9.283
		C83.687,132.528,86.831,128.799,90.055,125.223z"/>
	<path d="M38.446,227.574l-14.704-2.965c-1.017,5.042-1.876,10.187-2.554,15.292l14.869,1.975
		C36.692,237.101,37.495,232.289,38.446,227.574z"/>
	<path d="M110.842,105.03l-9.715-11.429c-3.917,3.33-7.774,6.836-11.465,10.421l10.452,10.759
		C103.568,111.426,107.177,108.146,110.842,105.03z"/>
	<path d="M57.362,172.93l-13.391-6.759c-2.322,4.6-4.515,9.332-6.519,14.065l13.813,5.848
		C53.14,181.658,55.191,177.232,57.362,172.93z"/>
	<path d="M46.066,199.616l-14.174-4.908c-1.684,4.86-3.224,9.845-4.578,14.813l14.472,3.944
		C43.053,208.82,44.493,204.161,46.066,199.616z"/>
	<path d="M252.698,434.757c90.693,0,164.477-73.784,164.477-164.477s-73.784-164.477-164.477-164.477S88.221,179.587,88.221,270.28
		S162.005,434.757,252.698,434.757z M252.698,120.803c82.422,0,149.477,67.055,149.477,149.477S335.12,419.757,252.698,419.757
		c-82.421,0-149.477-67.055-149.477-149.477S170.277,120.803,252.698,120.803z"/>
	<rect x="244.152" y="138.303" width="15" height="15"/>
	<rect x="244.152" y="386.303" width="15" height="15"/>
	<rect x="120.152" y="262.303" width="15" height="15"/>
	<rect x="368.152" y="262.303" width="15" height="15"/>
	<polygon points="301.455,306.5 259.152,264.197 259.152,181.303 244.152,181.303 244.152,270.41 290.848,317.106 	"/>
</g>
<g>
</g>
<g>
</g>
<g>
</g>
<g>
</g>
<g>
</g>
<g>
</g>
<g>
</g>
<g>
</g>
<g>
</g>
<g>
</g>
<g>
</g>
<g>
</g>
<g>
</g>
<g>
</g>
<g>
</g>
</svg>
