<?xml version="1.0" encoding="iso-8859-1"?>
<!-- Generator: Adobe Illustrator 19.0.0, SVG Export Plug-In . SVG Version: 6.00 Build 0)  -->
<svg version="1.1" id="Layer_1" xmlns="http://www.w3.org/2000/svg" xmlns:xlink="http://www.w3.org/1999/xlink" x="0px" y="0px"
	 viewBox="0 0 505 505" style="enable-background:new 0 0 505 505;" xml:space="preserve">
<path d="M273.71,260h30.746h15.117h45.171h15.029h47.555h15.01h47.531h7.63h7.38c0.072-2.495,0.12-4.994,0.12-7.5
	c0-67.445-26.265-130.854-73.956-178.544C383.354,26.265,319.945,0,252.5,0S121.646,26.265,73.956,73.956
	C26.265,121.646,0,185.055,0,252.5s26.265,130.854,73.956,178.544c42.227,42.227,96.78,67.64,155.544,72.912v-15.074
	C109.294,477.277,15,375.699,15,252.5c0-23.845,3.547-46.873,10.116-68.603C29.143,187.677,34.554,190,40.5,190
	c12.406,0,22.5-10.093,22.5-22.5c0-12.321-9.957-22.356-22.246-22.494C80.047,67.92,160.207,15,252.5,15
	c128.448,0,233.393,102.5,237.37,230h-47.531C438.385,143.698,354.754,62.5,252.5,62.5c-104.767,0-190,85.233-190,190
	c0,96.982,73.041,177.215,167,188.604v-15.117c-85.665-11.297-152-84.788-152-173.487c0-96.495,78.505-175,175-175
	c32.018,0,62.051,8.651,87.896,23.727C334.712,105.314,331,111.98,331,119.5c0,12.407,10.094,22.5,22.5,22.5
	c9.673,0,17.94-6.137,21.113-14.722c30.934,30.173,50.764,71.67,52.716,117.722h-47.555c-3.896-66.826-59.488-120-127.273-120
	C182.196,125,125,182.196,125,252.5c0,9.126,0.971,18.029,2.802,26.617c-0.757-0.077-1.525-0.117-2.302-0.117
	c-12.406,0-22.5,10.093-22.5,22.5s10.094,22.5,22.5,22.5c6.651,0,12.635-2.903,16.758-7.506
	c18.419,31.605,50.035,54.616,87.242,61.423v-15.284C178.461,351.987,140,306.652,140,252.5c0-62.033,50.468-112.5,112.5-112.5
	c59.511,0,108.371,46.451,112.244,105h-45.171c-3.744-33.702-32.389-60-67.073-60c-37.22,0-67.5,30.28-67.5,67.5
	c0,29.146,18.571,54.033,44.5,63.46v-16.278C212.049,291.14,200,273.203,200,252.5c0-28.949,23.552-52.5,52.5-52.5
	c26.401,0,48.304,19.593,51.956,45H273.71c-3.096-8.729-11.433-15-21.21-15c-12.406,0-22.5,10.093-22.5,22.5
	c0,9.4,5.796,17.467,14,20.828V497.5h0.5v7.361c2.661,0.082,5.326,0.139,8,0.139c67.445,0,130.854-26.265,178.544-73.956
	c42.347-42.347,67.783-97.09,72.955-156.044h-15.072C477.755,393.321,379.423,486.652,259,489.905v-47.528
	c94.215-3.185,171.247-75.288,182.162-167.377h-15.104C415.253,358.803,344.938,424.214,259,427.369v-47.538
	c59.713-3.014,108.726-47.295,119.012-104.831h-15.274C352.706,324.227,310.42,361.845,259,364.792v-45.115
	c26.481-2.544,48.536-20.447,57.13-44.677h-16.206c-7.552,15.854-22.824,27.345-40.924,29.591v-30.552
	C265.851,271.968,271.329,266.712,273.71,260z M48,167.5c0,4.136-3.364,7.5-7.5,7.5s-7.5-3.364-7.5-7.5s3.364-7.5,7.5-7.5
	S48,163.364,48,167.5z M353.5,127c-4.136,0-7.5-3.364-7.5-7.5s3.364-7.5,7.5-7.5s7.5,3.364,7.5,7.5S357.636,127,353.5,127z
	 M125.5,309c-4.136,0-7.5-3.364-7.5-7.5s3.364-7.5,7.5-7.5s7.5,3.364,7.5,7.5S129.636,309,125.5,309z M252.5,245
	c4.136,0,7.5,3.364,7.5,7.5s-3.364,7.5-7.5,7.5s-7.5-3.364-7.5-7.5S248.364,245,252.5,245z"/>
<g>
</g>
<g>
</g>
<g>
</g>
<g>
</g>
<g>
</g>
<g>
</g>
<g>
</g>
<g>
</g>
<g>
</g>
<g>
</g>
<g>
</g>
<g>
</g>
<g>
</g>
<g>
</g>
<g>
</g>
</svg>
