<?xml version="1.0" encoding="iso-8859-1"?>
<!-- Generator: Adobe Illustrator 19.0.0, SVG Export Plug-In . SVG Version: 6.00 Build 0)  -->
<svg version="1.1" id="Layer_1" xmlns="http://www.w3.org/2000/svg" xmlns:xlink="http://www.w3.org/1999/xlink" x="0px" y="0px"
	 viewBox="0 0 505 505" style="enable-background:new 0 0 505 505;" xml:space="preserve">
<g>
	<polygon points="399.824,0 109.218,0 109.218,82.5 124.218,82.5 124.218,15 393.612,15 489.218,110.606 489.218,490 124.218,490 
		124.218,453.5 109.218,453.5 109.218,505 504.218,505 504.218,104.394 	"/>
	<polygon points="389.218,42.5 389.218,115 461.718,115 461.718,100 404.218,100 404.218,42.5 	"/>
	<polygon points="168.297,306 168.297,131.5 153.297,131.5 153.297,321 175.628,321 103.604,406.785 32.654,321 53.823,321 
		53.823,131.5 38.823,131.5 38.823,306 0.782,306 103.517,430.215 207.808,306 	"/>
	<rect x="38.823" y="102.5" width="15" height="15"/>
	<rect x="153.297" y="102.5" width="15" height="15"/>
	<rect x="243.718" y="282" width="193" height="15"/>
	<rect x="243.718" y="327" width="193" height="15"/>
	<rect x="243.718" y="372" width="67" height="15"/>
	<rect x="325.718" y="372" width="15" height="15"/>
	<rect x="385.718" y="372" width="15" height="15"/>
	<rect x="355.718" y="372" width="15" height="15"/>
	<rect x="196.718" y="237" width="240" height="15"/>
	<rect x="196.718" y="192" width="240" height="15"/>
	<rect x="196.718" y="147" width="240" height="15"/>
	<rect x="94.218" y="178.5" width="15" height="15"/>
	<rect x="94.218" y="148.5" width="15" height="15"/>
	<rect x="94.218" y="208.5" width="15" height="15"/>
	<rect x="94.218" y="298.5" width="15" height="15"/>
	<rect x="94.218" y="268.5" width="15" height="15"/>
	<rect x="94.218" y="238.5" width="15" height="15"/>
</g>
<g>
</g>
<g>
</g>
<g>
</g>
<g>
</g>
<g>
</g>
<g>
</g>
<g>
</g>
<g>
</g>
<g>
</g>
<g>
</g>
<g>
</g>
<g>
</g>
<g>
</g>
<g>
</g>
<g>
</g>
</svg>
