<?xml version="1.0" encoding="iso-8859-1"?>
<!-- Generator: Adobe Illustrator 19.0.0, SVG Export Plug-In . SVG Version: 6.00 Build 0)  -->
<svg version="1.1" id="Layer_1" xmlns="http://www.w3.org/2000/svg" xmlns:xlink="http://www.w3.org/1999/xlink" x="0px" y="0px"
	 viewBox="0 0 505 505" style="enable-background:new 0 0 505 505;" xml:space="preserve">
<g>
	<path d="M390.114,118.136l-186.205,86.523l-86.523,186.205l186.205-86.523L390.114,118.136z M295.663,285.806l-10.495-10.495
		c4.407-6.261,6.79-13.704,6.79-21.518c0-8.765-2.987-17.07-8.478-23.754c-0.785-0.955-1.62-1.877-2.506-2.762
		s-1.807-1.721-2.762-2.506c-6.685-5.492-14.99-8.478-23.754-8.478c-7.814,0-15.257,2.384-21.518,6.79l-10.495-10.495
		l136.773-63.554L295.663,285.806z M237.043,268.044c-3.294-4.01-5.086-8.993-5.086-14.251c0-2.219,0.324-4.388,0.94-6.457
		c0.034-0.112,0.073-0.223,0.109-0.335c0.17-0.539,0.36-1.072,0.571-1.596c0.097-0.24,0.205-0.476,0.311-0.713
		c0.174-0.392,0.354-0.781,0.55-1.162c0.171-0.33,0.356-0.653,0.544-0.976c0.164-0.283,0.329-0.566,0.506-0.842
		c0.246-0.383,0.51-0.757,0.782-1.128c0.154-0.211,0.306-0.423,0.467-0.629c0.313-0.398,0.647-0.785,0.991-1.167
		c0.272-0.302,0.53-0.614,0.82-0.904c0.531-0.531,1.084-1.033,1.657-1.503c4.01-3.295,8.994-5.087,14.252-5.087
		c5.259,0,10.242,1.792,14.253,5.087c0.573,0.471,1.126,0.972,1.657,1.503c0.531,0.531,1.033,1.084,1.503,1.657
		c3.295,4.011,5.087,8.994,5.087,14.253c0,5.259-1.792,10.242-5.087,14.252c-0.471,0.573-0.972,1.126-1.503,1.657
		c-0.29,0.29-0.601,0.548-0.904,0.82c-0.382,0.344-0.77,0.678-1.168,0.992c-0.205,0.161-0.417,0.312-0.627,0.465
		c-0.372,0.272-0.747,0.537-1.131,0.783c-0.275,0.176-0.557,0.34-0.839,0.503c-0.324,0.189-0.65,0.375-0.981,0.547
		c-0.379,0.195-0.765,0.374-1.154,0.546c-0.24,0.107-0.479,0.217-0.722,0.315c-0.521,0.209-1.049,0.398-1.585,0.567
		c-0.116,0.037-0.23,0.078-0.346,0.113c-2.068,0.616-4.235,0.939-6.453,0.939c-5.258,0-10.241-1.792-14.252-5.086
		c-0.57-0.469-1.124-0.97-1.658-1.504C238.013,269.169,237.513,268.615,237.043,268.044z M211.837,223.194l10.777,10.777
		c-0.067,0.106-0.131,0.213-0.196,0.319c-0.156,0.255-0.305,0.514-0.455,0.772c-0.179,0.307-0.356,0.615-0.525,0.927
		c-0.077,0.143-0.151,0.287-0.226,0.43c-0.234,0.443-0.459,0.888-0.674,1.338c-0.005,0.01-0.009,0.019-0.013,0.029
		c-6.387,13.413-4.309,29.671,6.125,41.166c0.418,0.461,0.849,0.914,1.292,1.357c0.448,0.448,0.906,0.883,1.373,1.306
		c0.29,0.263,0.588,0.511,0.883,0.763c0.176,0.15,0.347,0.306,0.526,0.452c0.446,0.366,0.899,0.717,1.357,1.06
		c0.029,0.021,0.056,0.045,0.085,0.066c6.614,4.922,14.443,7.396,22.284,7.396c5.455,0,10.912-1.206,15.969-3.606
		c0.043-0.02,0.087-0.041,0.13-0.062c0.438-0.21,0.872-0.429,1.303-0.656c0.163-0.086,0.326-0.172,0.488-0.26
		c0.308-0.169,0.614-0.343,0.918-0.521c0.262-0.152,0.522-0.306,0.781-0.465c0.081-0.05,0.163-0.095,0.243-0.145l10.775,10.775
		l-136.773,63.554L211.837,223.194z"/>
	<path d="M431.044,73.956C383.354,26.265,319.945,0,252.5,0S121.646,26.265,73.956,73.956S0,185.055,0,252.5
		s26.265,130.854,73.956,178.544S185.055,505,252.5,505s130.854-26.265,178.544-73.956S505,319.945,505,252.5
		S478.735,121.646,431.044,73.956z M252.5,490C121.542,490,15,383.458,15,252.5S121.542,15,252.5,15S490,121.542,490,252.5
		S383.458,490,252.5,490z"/>
	<path d="M65.628,174.35l-13.836-5.793c-2.017,4.817-3.881,9.768-5.541,14.715l14.221,4.771
		C62.017,183.439,63.751,178.833,65.628,174.35z"/>
	<path d="M86.828,136.026l-12.264-8.638c-3.004,4.266-5.89,8.693-8.577,13.16l12.854,7.732
		C81.343,144.121,84.03,139.998,86.828,136.026z"/>
	<path d="M151.022,77.222l-7.528-12.975c-4.504,2.613-8.972,5.426-13.281,8.361l8.443,12.397
		C142.668,82.273,146.829,79.654,151.022,77.222z"/>
	<path d="M53.219,216.336l-14.762-2.661c-0.923,5.12-1.671,10.349-2.225,15.541l14.916,1.589
		C51.663,225.97,52.36,221.102,53.219,216.336z"/>
	<path d="M50.137,260.017l-14.99,0.547c0.19,5.213,0.571,10.479,1.132,15.652l14.912-1.617
		C50.668,269.78,50.314,264.874,50.137,260.017z"/>
	<path d="M452.853,222.9l14.842-2.172c-0.755-5.161-1.709-10.357-2.835-15.443l-14.646,3.242
		C451.262,213.261,452.149,218.096,452.853,222.9z"/>
	<path d="M470,252.005l-15,0.047l0,0.448c0,4.869-0.175,9.786-0.519,14.614l14.962,1.067C469.812,263,470,257.723,470,252.5
		L470,252.005z"/>
	<path d="M434.496,133.361c-2.856-4.354-5.909-8.663-9.074-12.805l-11.919,9.107c2.948,3.857,5.791,7.869,8.45,11.924
		L434.496,133.361z"/>
	<path d="M56.432,303.334l-14.522,3.756c1.306,5.05,2.813,10.114,4.48,15.05l14.212-4.799
		C59.05,312.748,57.647,308.035,56.432,303.334z"/>
	<path d="M367.684,67.971c-4.424-2.767-9.004-5.407-13.613-7.846l-7.015,13.259c4.291,2.271,8.555,4.728,12.674,7.304
		L367.684,67.971z"/>
	<path d="M279.556,36.667c-5.162-0.641-10.422-1.103-15.635-1.372l-0.775,14.979c4.855,0.251,9.755,0.682,14.563,1.278
		L279.556,36.667z"/>
	<path d="M325.32,47.492c-4.915-1.746-9.955-3.332-14.98-4.715l-3.98,14.462c4.676,1.287,9.366,2.763,13.94,4.388L325.32,47.492z"/>
	<path d="M233.921,50.84l-1.357-14.938c-5.195,0.472-10.435,1.14-15.573,1.983l2.432,14.802
		C224.206,51.901,229.084,51.28,233.921,50.84z"/>
	<path d="M191.02,59.499l-4.55-14.293c-4.967,1.581-9.941,3.366-14.782,5.304l5.576,13.925
		C181.77,62.631,186.397,60.97,191.02,59.499z"/>
	<path d="M455.865,175.212c-1.849-4.864-3.903-9.726-6.103-14.45l-13.597,6.334c2.047,4.396,3.958,8.92,5.68,13.447L455.865,175.212
		z"/>
	<path d="M372.147,415.891l8.872,12.095c4.202-3.082,8.345-6.357,12.314-9.732l-9.718-11.427
		C379.919,409.971,376.06,413.021,372.147,415.891z"/>
	<path d="M334.283,437.809l6.063,13.72c4.76-2.103,9.508-4.411,14.111-6.858l-7.042-13.244
		C343.131,433.704,338.712,435.851,334.283,437.809z"/>
	<path d="M393.026,86.486L383.33,97.93c3.702,3.137,7.339,6.45,10.811,9.848l10.493-10.719
		C400.906,93.411,397.001,89.854,393.026,86.486z"/>
	<path d="M292.566,451.039l2.95,14.707c5.112-1.025,10.251-2.252,15.274-3.647l-4.012-14.453
		C302.104,448.943,297.323,450.084,292.566,451.039z"/>
	<path d="M404.463,386.345l11.252,9.92c3.446-3.91,6.795-7.996,9.954-12.146l-11.936-9.085
		C410.792,378.899,407.673,382.705,404.463,386.345z"/>
	<path d="M446.669,310.179l14.38,4.267c1.482-4.993,2.799-10.11,3.916-15.208l-14.652-3.209
		C449.273,300.772,448.047,305.534,446.669,310.179z"/>
	<path d="M429.715,350.565l13.118,7.274c2.532-4.566,4.927-9.28,7.119-14.01l-13.61-6.306
		C434.302,341.926,432.072,346.314,429.715,350.565z"/>
	<path d="M202.05,464.117c5.069,1.204,10.25,2.238,15.398,3.072l2.399-14.807c-4.792-0.776-9.613-1.738-14.332-2.859L202.05,464.117
		z"/>
	<path d="M117.858,423.327c4.095,3.231,8.358,6.354,12.671,9.28l8.422-12.412c-4.016-2.725-7.986-5.633-11.8-8.643L117.858,423.327z
		"/>
	<path d="M94.433,103.097l10.899,10.306c3.337-3.53,6.843-6.981,10.42-10.257l-10.131-11.062
		C101.78,95.602,98.016,99.308,94.433,103.097z"/>
	<path d="M252.523,455c-0.007,0-0.016,0-0.023,0c-1.185,0-2.367-0.01-3.546-0.031l-0.258,14.998
		c1.274,0.021,2.512,0.007,3.831,0.033c3.941,0,7.932-0.107,11.861-0.319l-0.808-14.979C259.917,454.9,256.198,455,252.523,455z"/>
	<path d="M84.298,390.402c3.306,4.027,6.801,7.986,10.387,11.768l10.883-10.323c-3.341-3.522-6.597-7.21-9.676-10.962
		L84.298,390.402z"/>
	<path d="M58.568,351.071c2.364,4.642,4.928,9.256,7.622,13.716l12.84-7.755c-2.507-4.151-4.895-8.448-7.095-12.769L58.568,351.071z
		"/>
	<path d="M157.713,448.313c4.696,2.277,9.536,4.41,14.384,6.34l5.548-13.937c-4.512-1.796-9.016-3.782-13.387-5.901L157.713,448.313
		z"/>
</g>
<g>
</g>
<g>
</g>
<g>
</g>
<g>
</g>
<g>
</g>
<g>
</g>
<g>
</g>
<g>
</g>
<g>
</g>
<g>
</g>
<g>
</g>
<g>
</g>
<g>
</g>
<g>
</g>
<g>
</g>
</svg>
