<?xml version="1.0" encoding="iso-8859-1"?>
<!-- Generator: Adobe Illustrator 19.0.0, SVG Export Plug-In . SVG Version: 6.00 Build 0)  -->
<svg version="1.1" id="Layer_1" xmlns="http://www.w3.org/2000/svg" xmlns:xlink="http://www.w3.org/1999/xlink" x="0px" y="0px"
	 viewBox="0 0 506 506" style="enable-background:new 0 0 506 506;" xml:space="preserve">
<g>
	<path d="M0.5,128v378h505V128H0.5z M490.5,491h-475V143h475V491z"/>
	<rect x="29" y="204" width="447" height="15"/>
	<rect x="260.5" y="166" width="15" height="15"/>
	<rect x="320.5" y="166" width="15" height="15"/>
	<rect x="110.5" y="166" width="15" height="15"/>
	<rect x="380.5" y="166" width="15" height="15"/>
	<rect x="350.5" y="166" width="15" height="15"/>
	<rect x="290.5" y="166" width="15" height="15"/>
	<rect x="170.5" y="166" width="15" height="15"/>
	<rect x="140.5" y="166" width="15" height="15"/>
	<rect x="200.5" y="166" width="15" height="15"/>
	<rect x="230.5" y="166" width="15" height="15"/>
	<polygon points="90.5,15 415.5,15 415.5,35.5 430.5,35.5 430.5,0 75.5,0 75.5,35.5 90.5,35.5 	"/>
	<polygon points="50.5,63 455.5,63 455.5,115.5 470.5,115.5 470.5,48 35.5,48 35.5,115.5 50.5,115.5 	"/>
</g>
<g>
</g>
<g>
</g>
<g>
</g>
<g>
</g>
<g>
</g>
<g>
</g>
<g>
</g>
<g>
</g>
<g>
</g>
<g>
</g>
<g>
</g>
<g>
</g>
<g>
</g>
<g>
</g>
<g>
</g>
</svg>
