<?xml version="1.0" encoding="iso-8859-1"?>
<!-- Generator: Adobe Illustrator 19.0.0, SVG Export Plug-In . SVG Version: 6.00 Build 0)  -->
<svg version="1.1" id="Layer_1" xmlns="http://www.w3.org/2000/svg" xmlns:xlink="http://www.w3.org/1999/xlink" x="0px" y="0px"
	 viewBox="0 0 505 505" style="enable-background:new 0 0 505 505;" xml:space="preserve">
<g>
	<path d="M345.606,0H55v505h395V104.394L345.606,0z M435,490H70V15h269.394L435,110.606V490z"/>
	<polygon points="335,42.5 335,115 407.5,115 407.5,100 350,100 350,42.5 	"/>
	<rect x="112.5" y="296" width="280" height="15"/>
	<rect x="112.5" y="341" width="280" height="15"/>
	<rect x="112.5" y="386" width="110" height="15"/>
	<rect x="237.5" y="386" width="15" height="15"/>
	<rect x="297.5" y="386" width="15" height="15"/>
	<rect x="267.5" y="386" width="15" height="15"/>
	<rect x="112.5" y="251" width="280" height="15"/>
	<rect x="112.5" y="206" width="280" height="15"/>
	<rect x="112.5" y="161" width="280" height="15"/>
	<rect x="172.5" y="81.5" width="15" height="15"/>
	<rect x="112.5" y="81.5" width="15" height="15"/>
	<rect x="142.5" y="51.5" width="15" height="15"/>
	<rect x="142.5" y="111.5" width="15" height="15"/>
	<rect x="142.5" y="81.5" width="15" height="15"/>
</g>
<g>
</g>
<g>
</g>
<g>
</g>
<g>
</g>
<g>
</g>
<g>
</g>
<g>
</g>
<g>
</g>
<g>
</g>
<g>
</g>
<g>
</g>
<g>
</g>
<g>
</g>
<g>
</g>
<g>
</g>
</svg>
