<?xml version="1.0" encoding="iso-8859-1"?>
<!-- Generator: Adobe Illustrator 19.0.0, SVG Export Plug-In . SVG Version: 6.00 Build 0)  -->
<svg version="1.1" id="Layer_1" xmlns="http://www.w3.org/2000/svg" xmlns:xlink="http://www.w3.org/1999/xlink" x="0px" y="0px"
	 viewBox="0 0 505.189 505.189" style="enable-background:new 0 0 505.189 505.189;" xml:space="preserve">
<g>
	<path d="M15,252.595c0-37.22,30.28-67.5,67.5-67.5v-15c-45.49,0-82.5,37.009-82.5,82.5s37.01,82.5,82.5,82.5v-15
		C45.28,320.095,15,289.815,15,252.595z"/>
	<path d="M82.5,200.095c-28.948,0-52.5,23.551-52.5,52.5s23.552,52.5,52.5,52.5s52.5-23.551,52.5-52.5S111.448,200.095,82.5,200.095
		z M82.5,290.095c-20.678,0-37.5-16.822-37.5-37.5s16.822-37.5,37.5-37.5s37.5,16.822,37.5,37.5S103.178,290.095,82.5,290.095z"/>
	<rect x="151.952" y="202.125" transform="matrix(-0.4138 -0.9104 0.9104 -0.4138 34.5994 441.5278)" width="15" height="15"/>
	<rect x="233.884" y="164.882" transform="matrix(-0.4138 -0.9104 0.9104 -0.4138 184.3408 463.4624)" width="15" height="15"/>
	<rect x="261.196" y="152.468" transform="matrix(-0.4138 -0.9104 0.9104 -0.4138 234.2553 470.7747)" width="15" height="15"/>
	<rect x="179.262" y="189.71" transform="matrix(-0.4138 -0.9104 0.9104 -0.4138 84.513 448.8386)" width="15" height="15"/>
	<rect x="206.574" y="177.296" transform="matrix(-0.4138 -0.9104 0.9104 -0.4138 134.4276 456.1509)" width="15" height="15"/>
	<rect x="288.506" y="140.053" transform="matrix(-0.4138 -0.9104 0.9104 -0.4138 284.1687 478.0858)" width="15" height="15"/>
	<rect x="343.129" y="115.225" transform="matrix(-0.4138 -0.9104 0.9104 -0.4138 383.9967 492.7092)" width="15" height="15"/>
	<rect x="315.817" y="127.639" transform="matrix(-0.4138 -0.9104 0.9104 -0.4138 334.0828 485.3973)" width="15" height="15.001"/>
	<rect x="146.748" y="285.681" transform="matrix(-0.9104 -0.4138 0.4138 -0.9104 173.3387 623.9117)" width="15" height="15"/>
	<rect x="201.369" y="310.51" transform="matrix(-0.9104 -0.4138 0.4138 -0.9104 267.4201 693.9467)" width="15.001" height="15"/>
	<rect x="174.058" y="298.096" transform="matrix(-0.9104 -0.4138 0.4138 -0.9104 220.3739 658.9299)" width="15" height="15"/>
	<rect x="283.301" y="347.754" transform="matrix(-0.9104 -0.4138 0.4138 -0.9104 408.5164 799.0032)" width="15" height="15"/>
	<rect x="337.923" y="372.583" transform="matrix(-0.9104 -0.4138 0.4138 -0.9104 502.6031 869.0358)" width="15" height="15"/>
	<rect x="310.612" y="360.168" transform="matrix(-0.9104 -0.4138 0.4138 -0.9104 455.5516 834.0214)" width="15" height="15"/>
	<rect x="255.991" y="335.339" transform="matrix(-0.9104 -0.4138 0.4138 -0.9104 361.4813 763.985)" width="15" height="15"/>
	<rect x="228.68" y="322.925" transform="matrix(-0.9104 -0.4138 0.4138 -0.9104 314.4461 728.9667)" width="15" height="15"/>
	<path d="M422.678,475.108c28.948,0,52.5-23.551,52.5-52.5s-23.552-52.5-52.5-52.5s-52.5,23.551-52.5,52.5
		S393.729,475.108,422.678,475.108z M422.678,385.108c20.678,0,37.5,16.822,37.5,37.5s-16.822,37.5-37.5,37.5
		s-37.5-16.822-37.5-37.5S402,385.108,422.678,385.108z"/>
	<path d="M422.633,135.086c28.948,0,52.5-23.551,52.5-52.5s-23.552-52.5-52.5-52.5s-52.5,23.551-52.5,52.5
		S393.685,135.086,422.633,135.086z M422.633,45.086c20.678,0,37.5,16.822,37.5,37.5s-16.822,37.5-37.5,37.5s-37.5-16.822-37.5-37.5
		S401.955,45.086,422.633,45.086z"/>
	<path d="M442.987,18.265c17.211,5.446,31.257,17.243,39.551,33.215c8.294,15.973,9.862,34.249,4.416,51.459
		c-5.446,17.211-17.243,31.258-33.216,39.552l6.912,13.313c19.529-10.14,33.949-27.307,40.604-48.338s4.736-43.369-5.404-62.897
		c-10.14-19.529-27.307-33.949-48.338-40.604c-21.033-6.655-43.37-4.736-62.897,5.404l6.912,13.313
		C407.501,14.386,425.775,12.818,442.987,18.265z"/>
	<path d="M502.072,400.319c-5.962-21.238-19.813-38.869-38.998-49.644l-7.346,13.079c15.693,8.813,27.022,23.238,31.902,40.619
		c4.879,17.38,2.713,35.595-6.1,51.288c-8.813,15.692-23.238,27.022-40.619,31.901c-17.381,4.88-35.595,2.713-51.286-6.1
		l-7.346,13.079c12.479,7.008,26.257,10.579,40.211,10.579c7.499,0,15.052-1.032,22.476-3.116
		c21.238-5.962,38.868-19.813,49.643-38.999C505.385,443.819,508.035,421.557,502.072,400.319z"/>
</g>
<g>
</g>
<g>
</g>
<g>
</g>
<g>
</g>
<g>
</g>
<g>
</g>
<g>
</g>
<g>
</g>
<g>
</g>
<g>
</g>
<g>
</g>
<g>
</g>
<g>
</g>
<g>
</g>
<g>
</g>
</svg>
