<?xml version="1.0" encoding="iso-8859-1"?>
<!-- Generator: Adobe Illustrator 19.0.0, SVG Export Plug-In . SVG Version: 6.00 Build 0)  -->
<svg version="1.1" id="Layer_1" xmlns="http://www.w3.org/2000/svg" xmlns:xlink="http://www.w3.org/1999/xlink" x="0px" y="0px"
	 viewBox="0 0 505 505" style="enable-background:new 0 0 505 505;" xml:space="preserve">
<g>
	<polygon points="69,15 114,15 114,219.5 129,219.5 129,0 54,0 54,219.5 69,219.5 	"/>
	<polygon points="114,490 69,490 69,325.5 54,325.5 54,505 129,505 129,325.5 114,325.5 	"/>
	<path d="M49,310h85v-75H49V310z M64,250h55v45H64V250z"/>
	<rect x="84" y="445.5" width="15" height="15"/>
	<rect x="84" y="415.5" width="15" height="15"/>
	<rect x="84" y="325.5" width="15" height="15"/>
	<rect x="84" y="385.5" width="15" height="15"/>
	<rect x="84" y="355.5" width="15" height="15"/>
	<polygon points="176,15 221,15 221,109.5 236,109.5 236,0 161,0 161,109.5 176,109.5 	"/>
	<polygon points="221,490 176,490 176,215.5 161,215.5 161,505 236,505 236,215.5 221,215.5 	"/>
	<path d="M156,200h85v-75h-85V200z M171,140h55v45h-55V140z"/>
	<rect x="191" y="335.5" width="15" height="15"/>
	<rect x="191" y="305.5" width="15" height="15"/>
	<rect x="191" y="365.5" width="15" height="15"/>
	<rect x="191" y="245.5" width="15" height="15"/>
	<rect x="191" y="275.5" width="15" height="15"/>
	<rect x="191" y="215.5" width="15" height="15"/>
	<rect x="191" y="455.5" width="15" height="15"/>
	<rect x="191" y="395.5" width="15" height="15"/>
	<rect x="191" y="425.5" width="15" height="15"/>
	<polygon points="283.667,15 328.667,15 328.667,266.5 343.667,266.5 343.667,0 268.667,0 268.667,266.5 283.667,266.5 	"/>
	<polygon points="328.667,490 283.667,490 283.667,378.5 268.667,378.5 268.667,505 343.667,505 343.667,378.5 328.667,378.5 	"/>
	<path d="M263.667,360h85v-75h-85V360z M278.667,300h55v45h-55V300z"/>
	<rect x="298.667" y="438.5" width="15" height="15"/>
	<rect x="298.667" y="408.5" width="15" height="15"/>
	<rect x="298.667" y="378.5" width="15" height="15"/>
	<polygon points="391,15 436,15 436,146.5 451,146.5 451,0 376,0 376,146.5 391,146.5 	"/>
	<polygon points="436,490 391,490 391,258.5 376,258.5 376,505 451,505 451,258.5 436,258.5 	"/>
	<path d="M371,165v75h85v-75H371z M441,225h-55v-45h55V225z"/>
	<rect x="406" y="438.5" width="15" height="15"/>
	<rect x="406" y="378.5" width="15" height="15"/>
	<rect x="406" y="408.5" width="15" height="15"/>
	<rect x="406" y="288.5" width="15" height="15"/>
	<rect x="406" y="348.5" width="15" height="15"/>
	<rect x="406" y="258.5" width="15" height="15"/>
	<rect x="406" y="318.5" width="15" height="15"/>
</g>
<g>
</g>
<g>
</g>
<g>
</g>
<g>
</g>
<g>
</g>
<g>
</g>
<g>
</g>
<g>
</g>
<g>
</g>
<g>
</g>
<g>
</g>
<g>
</g>
<g>
</g>
<g>
</g>
<g>
</g>
</svg>
