<?xml version="1.0" encoding="iso-8859-1"?>
<!-- Generator: Adobe Illustrator 19.0.0, SVG Export Plug-In . SVG Version: 6.00 Build 0)  -->
<svg version="1.1" id="Layer_1" xmlns="http://www.w3.org/2000/svg" xmlns:xlink="http://www.w3.org/1999/xlink" x="0px" y="0px"
	 viewBox="0 0 505 505" style="enable-background:new 0 0 505 505;" xml:space="preserve">
<g>
	<path d="M0,35v435h505V35H0z M490,50v65H15V50H490z M15,455V130h475v325H15z"/>
	<rect x="320" y="74" width="15" height="15"/>
	<rect x="230" y="74" width="15" height="15"/>
	<rect x="290" y="74" width="15" height="15"/>
	<rect x="350" y="74" width="15" height="15"/>
	<rect x="260" y="74" width="15" height="15"/>
	<rect x="380" y="74" width="15" height="15"/>
	<rect x="440" y="74" width="15" height="15"/>
	<rect x="410" y="74" width="15" height="15"/>
	<rect x="80" y="74" width="15" height="15"/>
	<rect x="110" y="74" width="15" height="15"/>
	<rect x="200" y="74" width="15" height="15"/>
	<rect x="50" y="74" width="15" height="15"/>
	<rect x="140" y="74" width="15" height="15"/>
	<rect x="170" y="74" width="15" height="15"/>
	<path d="M199,166.94v184.414l141.218-92.207L199,166.94z M214,194.648l98.782,64.499L214,323.646V194.648z"/>
	<path d="M440,389H184v-5h-55v5H65v45h64v5h55v-5h256V389z M80,419v-15h49v15H80z M169,424h-25v-25h25V424z M425,419H184v-15h241
		V419z"/>
</g>
<g>
</g>
<g>
</g>
<g>
</g>
<g>
</g>
<g>
</g>
<g>
</g>
<g>
</g>
<g>
</g>
<g>
</g>
<g>
</g>
<g>
</g>
<g>
</g>
<g>
</g>
<g>
</g>
<g>
</g>
</svg>
