<?xml version="1.0" encoding="iso-8859-1"?>
<!-- Generator: Adobe Illustrator 19.0.0, SVG Export Plug-In . SVG Version: 6.00 Build 0)  -->
<svg version="1.1" id="Layer_1" xmlns="http://www.w3.org/2000/svg" xmlns:xlink="http://www.w3.org/1999/xlink" x="0px" y="0px"
	 viewBox="0 0 505 505" style="enable-background:new 0 0 505 505;" xml:space="preserve">
<g>
	<path d="M417.5,90.117h-330c-48.248,0-87.5,39.252-87.5,87.5v33.74v25.677v32.583c0,48.248,39.252,87.5,87.5,87.5H215v57.766
		l161.218-105.266L215,204.351v57.766H90v-49.5c0-17.92,14.58-32.5,32.5-32.5h260c17.921,0,32.5,14.58,32.5,32.5v49.5h-84.094
		l72.748,47.5l-72.748,47.5H417.5c48.248,0,87.5-39.252,87.5-87.5v-32.583v-25.677v-33.74C505,129.369,465.748,90.117,417.5,90.117z
		 M230,277.117v-45.058l118.782,77.558L230,387.175v-45.058H87.5c-39.977,0-72.5-32.523-72.5-72.5v-16.383
		c0.245,0.209,0.499,0.416,0.748,0.625c0.275,0.23,0.55,0.461,0.829,0.69c0.306,0.252,0.616,0.503,0.927,0.754
		c0.26,0.209,0.522,0.418,0.785,0.626c0.342,0.271,0.683,0.541,1.03,0.81c0.469,0.364,0.943,0.726,1.422,1.087
		c0.34,0.256,0.685,0.509,1.029,0.763c0.259,0.191,0.518,0.381,0.779,0.57c0.349,0.253,0.699,0.505,1.052,0.756
		c0.267,0.189,0.537,0.377,0.806,0.565c0.603,0.421,1.212,0.838,1.826,1.25c0.278,0.187,0.555,0.374,0.835,0.559
		c0.361,0.238,0.724,0.474,1.088,0.709c0.285,0.184,0.57,0.366,0.857,0.547c0.361,0.229,0.722,0.458,1.086,0.684
		c0.475,0.294,0.953,0.584,1.433,0.871c0.431,0.259,0.865,0.513,1.299,0.766c0.322,0.187,0.644,0.374,0.967,0.558
		c0.354,0.202,0.708,0.401,1.064,0.599c0.352,0.195,0.705,0.387,1.058,0.578c0.484,0.262,0.97,0.521,1.457,0.775
		c0.443,0.231,0.886,0.461,1.33,0.685c0.327,0.165,0.654,0.325,0.982,0.486c0.383,0.188,0.767,0.373,1.151,0.556
		c0.315,0.15,0.63,0.3,0.946,0.446c0.633,0.293,1.268,0.579,1.904,0.856c0.26,0.113,0.52,0.22,0.78,0.33
		c0.451,0.192,0.903,0.38,1.354,0.563c0.294,0.119,0.588,0.236,0.883,0.352c0.477,0.187,0.953,0.367,1.43,0.544
		c0.23,0.085,0.461,0.175,0.691,0.258c0.668,0.241,1.336,0.47,2.004,0.69c0.245,0.081,0.489,0.157,0.734,0.234
		c0.49,0.156,0.979,0.306,1.468,0.449c0.242,0.071,0.484,0.143,0.726,0.211c0.686,0.193,1.371,0.378,2.054,0.547
		c0.117,0.029,0.234,0.053,0.352,0.082c0.594,0.143,1.186,0.275,1.777,0.398c0.223,0.046,0.445,0.09,0.667,0.134
		c0.545,0.107,1.088,0.204,1.63,0.293c0.165,0.027,0.331,0.058,0.495,0.083c0.686,0.106,1.369,0.196,2.049,0.271
		c0.169,0.019,0.336,0.033,0.505,0.049c0.538,0.054,1.073,0.098,1.605,0.132c0.195,0.013,0.391,0.025,0.585,0.035
		c0.679,0.034,1.355,0.057,2.025,0.057H90H230z M382.5,165.117h-260c-26.191,0-47.5,21.309-47.5,47.5v49.5h-7.5
		c-0.511,0-1.032-0.017-1.561-0.05c-0.171-0.01-0.348-0.032-0.521-0.045c-0.362-0.029-0.724-0.056-1.094-0.099
		c-0.205-0.024-0.415-0.058-0.622-0.086c-0.347-0.047-0.692-0.092-1.045-0.151c-0.216-0.036-0.438-0.082-0.656-0.122
		c-0.35-0.065-0.7-0.128-1.056-0.204c-0.224-0.048-0.452-0.104-0.678-0.155c-0.356-0.082-0.713-0.163-1.074-0.255
		c-0.228-0.058-0.459-0.123-0.689-0.186c-0.366-0.099-0.732-0.198-1.102-0.307c-0.226-0.067-0.455-0.139-0.683-0.21
		c-0.379-0.117-0.759-0.235-1.141-0.363c-0.223-0.074-0.447-0.153-0.671-0.23c-0.392-0.135-0.784-0.272-1.179-0.417
		c-0.218-0.08-0.438-0.164-0.657-0.247c-0.406-0.154-0.813-0.311-1.222-0.474c-0.209-0.084-0.419-0.17-0.629-0.256
		c-0.422-0.174-0.845-0.351-1.269-0.534c-0.199-0.086-0.398-0.174-0.598-0.262c-0.438-0.193-0.876-0.391-1.315-0.595
		c-0.188-0.087-0.376-0.175-0.564-0.264c-0.453-0.214-0.907-0.433-1.361-0.657c-0.174-0.086-0.349-0.172-0.523-0.26
		c-0.471-0.236-0.942-0.477-1.413-0.723c-0.157-0.082-0.315-0.164-0.472-0.247c-0.489-0.259-0.978-0.524-1.466-0.793
		c-0.139-0.077-0.279-0.153-0.418-0.231c-0.51-0.284-1.019-0.575-1.527-0.869c-0.116-0.067-0.231-0.133-0.347-0.201
		c-0.534-0.313-1.067-0.631-1.598-0.954c-0.089-0.054-0.178-0.107-0.267-0.161c-0.561-0.344-1.12-0.693-1.675-1.048
		c-0.058-0.037-0.116-0.073-0.174-0.11c-0.6-0.384-1.196-0.774-1.787-1.169c-0.012-0.008-0.025-0.016-0.037-0.025
		c-4.912-3.284-9.522-6.933-13.416-10.627c-0.049-0.047-0.096-0.093-0.145-0.14c-0.424-0.404-0.841-0.809-1.247-1.215
		c-0.095-0.094-0.185-0.189-0.279-0.283c-0.353-0.356-0.702-0.712-1.041-1.068c-0.124-0.13-0.243-0.26-0.365-0.39
		c-0.299-0.319-0.595-0.639-0.882-0.957c-0.14-0.156-0.275-0.311-0.412-0.466c-0.257-0.292-0.511-0.583-0.756-0.873
		c-0.148-0.176-0.292-0.351-0.436-0.526c-0.147-0.178-0.29-0.356-0.432-0.534v-54.463c0-39.977,32.523-72.5,72.5-72.5h330
		c39.977,0,72.5,32.523,72.5,72.5v54.463c-0.142,0.178-0.285,0.355-0.432,0.534c-0.144,0.175-0.287,0.35-0.436,0.526
		c-0.246,0.29-0.5,0.582-0.757,0.874c-0.137,0.155-0.271,0.31-0.411,0.466c-0.287,0.32-0.584,0.64-0.884,0.96
		c-0.121,0.129-0.239,0.258-0.361,0.387c-0.34,0.357-0.69,0.714-1.044,1.072c-0.093,0.093-0.182,0.187-0.276,0.28
		c-0.407,0.406-0.824,0.811-1.249,1.216c-0.048,0.046-0.094,0.092-0.143,0.138c-3.895,3.695-8.507,7.346-13.421,10.63
		c-0.004,0.003-0.009,0.006-0.013,0.009c-0.601,0.401-1.206,0.797-1.815,1.187c-0.047,0.03-0.094,0.059-0.14,0.089
		c-0.566,0.361-1.135,0.718-1.707,1.068c-0.081,0.049-0.162,0.098-0.243,0.147c-0.539,0.328-1.081,0.652-1.624,0.97
		c-0.106,0.062-0.213,0.123-0.319,0.184c-0.517,0.3-1.035,0.595-1.555,0.885c-0.132,0.073-0.264,0.146-0.396,0.218
		c-0.495,0.273-0.99,0.541-1.486,0.804c-0.152,0.081-0.305,0.16-0.458,0.24c-0.476,0.249-0.952,0.492-1.428,0.731
		c-0.169,0.085-0.338,0.168-0.507,0.252c-0.46,0.227-0.92,0.449-1.38,0.666c-0.182,0.086-0.363,0.171-0.545,0.255
		c-0.445,0.206-0.889,0.407-1.333,0.603c-0.195,0.086-0.389,0.172-0.584,0.256c-0.428,0.185-0.855,0.364-1.281,0.539
		c-0.206,0.085-0.412,0.17-0.618,0.252c-0.412,0.165-0.823,0.324-1.233,0.479c-0.216,0.082-0.432,0.164-0.647,0.243
		c-0.398,0.146-0.794,0.285-1.189,0.421c-0.221,0.076-0.442,0.154-0.661,0.227c-0.386,0.128-0.769,0.248-1.151,0.366
		c-0.225,0.069-0.451,0.141-0.674,0.207c-0.373,0.11-0.741,0.21-1.109,0.31c-0.228,0.061-0.456,0.126-0.682,0.184
		c-0.363,0.093-0.721,0.174-1.079,0.256c-0.224,0.051-0.45,0.107-0.673,0.154c-0.357,0.076-0.708,0.139-1.06,0.204
		c-0.217,0.04-0.437,0.085-0.653,0.121c-0.354,0.059-0.7,0.104-1.048,0.151c-0.206,0.028-0.416,0.062-0.62,0.086
		c-0.37,0.043-0.733,0.071-1.095,0.099c-0.173,0.014-0.349,0.035-0.52,0.045c-0.529,0.032-1.05,0.05-1.561,0.05H430v-49.5
		C430,186.426,408.691,165.117,382.5,165.117z M417.5,342.117h-36.184l49.775-32.5l-49.775-32.5H415h22.5
		c0.669,0,1.345-0.023,2.025-0.057c0.195-0.01,0.39-0.023,0.586-0.035c0.532-0.034,1.067-0.078,1.604-0.132
		c0.169-0.017,0.337-0.031,0.506-0.049c0.679-0.076,1.361-0.166,2.047-0.271c0.166-0.026,0.332-0.056,0.498-0.084
		c0.54-0.089,1.082-0.186,1.625-0.292c0.224-0.044,0.447-0.088,0.671-0.135c0.587-0.122,1.175-0.254,1.766-0.396
		c0.121-0.029,0.241-0.054,0.362-0.084c0.681-0.168,1.364-0.352,2.048-0.545c0.245-0.069,0.491-0.142,0.736-0.214
		c0.484-0.142,0.968-0.291,1.453-0.445c0.249-0.079,0.497-0.156,0.746-0.238c0.665-0.219,1.33-0.447,1.995-0.687
		c0.238-0.086,0.476-0.178,0.714-0.266c0.468-0.174,0.935-0.351,1.403-0.534c0.3-0.118,0.6-0.237,0.9-0.359
		c0.442-0.179,0.884-0.364,1.325-0.551c0.271-0.115,0.543-0.227,0.814-0.345c0.628-0.274,1.255-0.557,1.881-0.846
		c0.325-0.15,0.649-0.305,0.973-0.459c0.372-0.177,0.744-0.356,1.116-0.539c0.337-0.165,0.674-0.33,1.01-0.5
		c0.417-0.211,0.833-0.426,1.249-0.643c0.523-0.273,1.045-0.55,1.565-0.832c0.337-0.182,0.673-0.365,1.009-0.551
		c0.365-0.203,0.729-0.408,1.093-0.615c0.308-0.175,0.614-0.353,0.921-0.531c0.547-0.318,1.09-0.64,1.631-0.967
		c0.374-0.226,0.749-0.451,1.121-0.681c0.377-0.233,0.75-0.471,1.125-0.708c0.27-0.171,0.54-0.343,0.808-0.516
		c0.376-0.242,0.75-0.485,1.123-0.731c0.254-0.168,0.505-0.338,0.758-0.507c0.657-0.441,1.308-0.887,1.954-1.338
		c0.242-0.169,0.485-0.337,0.725-0.508c0.367-0.26,0.73-0.522,1.092-0.784c0.242-0.176,0.482-0.352,0.722-0.529
		c0.36-0.265,0.721-0.53,1.077-0.798c0.089-0.067,0.175-0.134,0.263-0.201c0.752-0.569,1.491-1.144,2.22-1.722
		c0.238-0.189,0.475-0.377,0.711-0.567c0.328-0.265,0.655-0.53,0.978-0.795c0.246-0.203,0.489-0.406,0.731-0.609
		c0.274-0.229,0.552-0.457,0.822-0.687v16.382C490,309.594,457.477,342.117,417.5,342.117z"/>
	<rect x="149.5" y="302.117" width="15" height="15"/>
	<rect x="179.5" y="302.117" width="15" height="15"/>
	<rect x="119.5" y="302.117" width="15" height="15"/>
</g>
<g>
</g>
<g>
</g>
<g>
</g>
<g>
</g>
<g>
</g>
<g>
</g>
<g>
</g>
<g>
</g>
<g>
</g>
<g>
</g>
<g>
</g>
<g>
</g>
<g>
</g>
<g>
</g>
<g>
</g>
</svg>
