<?xml version="1.0" encoding="iso-8859-1"?>
<!-- Generator: Adobe Illustrator 19.0.0, SVG Export Plug-In . SVG Version: 6.00 Build 0)  -->
<svg version="1.1" id="Layer_1" xmlns="http://www.w3.org/2000/svg" xmlns:xlink="http://www.w3.org/1999/xlink" x="0px" y="0px"
	 viewBox="0 0 505 505" style="enable-background:new 0 0 505 505;" xml:space="preserve">
<g>
	<path d="M431.045,73.956C383.354,26.265,319.945,0,252.5,0S121.646,26.265,73.955,73.956C26.265,121.647,0,185.056,0,252.5
		s26.265,130.853,73.955,178.544C121.646,478.735,185.055,505,252.5,505c29.164,0,57.765-4.938,85.007-14.676
		c16.52-5.906,32.454-13.562,47.36-22.756c8.355-5.154,14.107-13.654,15.781-23.321c1.672-9.65-0.88-19.57-7.001-27.215
		c-10.797-13.489-30.021-16.799-44.717-7.701c-28.761,17.804-62.106,27.215-96.431,27.215c-49.166,0-95.419-19.225-130.24-54.133
		c-34.819-34.906-53.928-81.209-53.805-130.38c0.253-100.973,82.605-183.326,183.579-183.577c0.159,0,0.311,0,0.47,0
		c48.992,0,95.116,19.1,129.909,53.806c34.908,34.821,54.133,81.074,54.133,130.239v50.611c0,11.824-9.332,21.721-20.802,22.061
		c-5.857,0.171-11.381-1.979-15.585-6.058c-4.206-4.083-6.522-9.548-6.522-15.388v-49.748c0-38.403-14.979-74.471-42.179-101.56
		c-26.599-26.49-61.722-41.056-98.96-41.056c-0.194,0-0.39,0-0.584,0.001c-38.428,0.157-74.314,15.534-101.05,43.298
		c-26.715,27.743-40.714,64.208-39.419,102.677c2.501,74.304,62.684,134.147,137.012,136.239c1.367,0.039,2.727,0.058,4.088,0.058
		c34.067-0.001,66.304-12.021,91.991-34.221c17.023,21.609,42.765,34.22,70.549,34.22c0.274,0,0.552-0.001,0.827-0.004
		c49.123-0.441,89.088-41.259,89.088-90.99V252.5C505,185.056,478.735,121.647,431.045,73.956z M490,302.643
		c0,41.534-33.296,75.623-74.223,75.991c-25.824,0.236-49.71-12.675-63.755-34.529l-4.967-7.728l-6.578,6.412
		c-24.677,24.051-57.206,36.766-91.599,35.797c-66.425-1.869-120.207-55.348-122.441-121.75
		c-1.158-34.381,11.354-66.972,35.231-91.768c23.897-24.818,55.97-38.563,90.306-38.703c33.384-0.13,65.009,12.891,88.898,36.684
		c24.353,24.253,37.764,56.546,37.764,90.931v49.748c0,9.93,3.933,19.217,11.074,26.15c7.139,6.93,16.563,10.579,26.479,10.288
		c19.495-0.578,35.356-17.201,35.356-37.054V252.5c0-53.179-20.79-103.203-58.539-140.859
		C355.379,74.106,305.5,53.455,252.504,53.455c-0.168,0-0.338,0-0.507,0c-109.203,0.271-198.269,89.336-198.542,198.54
		c-0.133,53.184,20.53,103.263,58.185,141.011c37.655,37.75,87.681,58.54,140.86,58.54c37.116,0,73.191-10.188,104.325-29.461
		c8.256-5.11,19.05-3.251,25.113,4.322c3.486,4.355,4.883,9.782,3.931,15.28c-0.941,5.436-4.177,10.215-8.877,13.114
		c-14.016,8.646-29,15.845-44.534,21.398C306.84,485.356,279.938,490,252.5,490c-63.438,0-123.08-24.705-167.938-69.563
		C39.704,375.579,15,315.938,15,252.5S39.704,129.421,84.563,84.563C129.42,39.705,189.062,15,252.5,15
		s123.08,24.705,167.938,69.563C465.296,129.421,490,189.062,490,252.5V302.643z"/>
	<path d="M252.5,164.818c-48.348,0-87.682,39.334-87.682,87.682s39.334,87.682,87.682,87.682s87.682-39.334,87.682-87.682
		S300.848,164.818,252.5,164.818z M252.5,325.182c-40.077,0-72.682-32.605-72.682-72.682s32.604-72.682,72.682-72.682
		s72.682,32.605,72.682,72.682S292.577,325.182,252.5,325.182z"/>
	<rect x="215" y="244" width="15" height="15"/>
	<rect x="275" y="244" width="15" height="15"/>
	<rect x="245" y="244" width="15" height="15"/>
</g>
<g>
</g>
<g>
</g>
<g>
</g>
<g>
</g>
<g>
</g>
<g>
</g>
<g>
</g>
<g>
</g>
<g>
</g>
<g>
</g>
<g>
</g>
<g>
</g>
<g>
</g>
<g>
</g>
<g>
</g>
</svg>
