<?xml version="1.0" encoding="iso-8859-1"?>
<!-- Generator: Adobe Illustrator 19.0.0, SVG Export Plug-In . SVG Version: 6.00 Build 0)  -->
<svg version="1.1" id="Layer_1" xmlns="http://www.w3.org/2000/svg" xmlns:xlink="http://www.w3.org/1999/xlink" x="0px" y="0px"
	 viewBox="0 0 505 505" style="enable-background:new 0 0 505 505;" xml:space="preserve">
<g>
	<path d="M0,0v505h505V0H0z M490,490H15V15h475V490z"/>
	<rect x="50" y="440" width="15" height="15"/>
	<rect x="50" y="137.115" width="15" height="14.423"/>
	<rect x="50" y="93.846" width="15" height="14.423"/>
	<rect x="50" y="180.385" width="15" height="14.423"/>
	<rect x="50" y="396.731" width="15" height="14.423"/>
	<rect x="50" y="223.654" width="15" height="14.423"/>
	<rect x="50" y="353.461" width="15" height="14.423"/>
	<rect x="50" y="266.923" width="15" height="14.423"/>
	<rect x="50" y="310.192" width="15" height="14.423"/>
	<rect x="50" y="50" width="15" height="15"/>
	<rect x="266.923" y="50" width="14.423" height="15"/>
	<rect x="310.191" y="50" width="14.424" height="15"/>
	<rect x="353.461" y="50" width="14.423" height="15"/>
	<rect x="396.73" y="50" width="14.423" height="15"/>
	<rect x="137.115" y="50" width="14.423" height="15"/>
	<rect x="180.384" y="50" width="14.424" height="15"/>
	<rect x="93.846" y="50" width="14.423" height="15"/>
	<rect x="223.653" y="50" width="14.423" height="15"/>
	<rect x="440" y="50" width="15" height="15"/>
	<rect x="440" y="223.654" width="15" height="14.423"/>
	<rect x="440" y="180.385" width="15" height="14.423"/>
	<rect x="440" y="266.923" width="15" height="14.423"/>
	<rect x="440" y="93.846" width="15" height="14.423"/>
	<rect x="440" y="137.115" width="15" height="14.423"/>
	<rect x="440" y="310.192" width="15" height="14.423"/>
	<rect x="440" y="353.461" width="15" height="14.423"/>
	<rect x="440" y="396.731" width="15" height="14.423"/>
	<rect x="440" y="440" width="15" height="15"/>
	<rect x="223.654" y="440" width="14.423" height="15"/>
	<rect x="266.924" y="440" width="14.423" height="15"/>
	<rect x="180.385" y="440" width="14.424" height="15"/>
	<rect x="137.116" y="440" width="14.423" height="15"/>
	<rect x="310.192" y="440" width="14.424" height="15"/>
	<rect x="353.462" y="440" width="14.423" height="15"/>
	<rect x="396.731" y="440" width="14.423" height="15"/>
	<rect x="93.847" y="440" width="14.423" height="15"/>
	<path d="M139.363,185.325l67.175,67.175l-67.175,67.175l45.962,45.961l67.175-67.175l67.175,67.175l45.962-45.961L298.462,252.5
		l67.175-67.175l-45.962-45.961L252.5,206.538l-67.175-67.175L139.363,185.325z M319.675,160.576l24.749,24.749L277.249,252.5
		l67.175,67.175l-24.749,24.749L252.5,277.249l-67.175,67.175l-24.749-24.749l67.175-67.175l-67.175-67.175l24.749-24.749
		l67.175,67.175L319.675,160.576z"/>
</g>
<g>
</g>
<g>
</g>
<g>
</g>
<g>
</g>
<g>
</g>
<g>
</g>
<g>
</g>
<g>
</g>
<g>
</g>
<g>
</g>
<g>
</g>
<g>
</g>
<g>
</g>
<g>
</g>
<g>
</g>
</svg>
