<?xml version="1.0" encoding="iso-8859-1"?>
<!-- Generator: Adobe Illustrator 19.0.0, SVG Export Plug-In . SVG Version: 6.00 Build 0)  -->
<svg version="1.1" id="Layer_1" xmlns="http://www.w3.org/2000/svg" xmlns:xlink="http://www.w3.org/1999/xlink" x="0px" y="0px"
	 viewBox="0 0 505 505" style="enable-background:new 0 0 505 505;" xml:space="preserve">
<g>
	<path d="M290,125h-75v90h-90v75h90v90h75v-90h90v-75h-90V125z M365,230v45h-90v90h-45v-90h-90v-45h90v-90h45v90H365z"/>
	<path d="M58.114,116.008l-12.269-8.631c-2.953,4.197-5.814,8.542-8.506,12.913l12.772,7.865
		C52.644,124.043,55.336,119.956,58.114,116.008z"/>
	<path d="M120.087,55.307l-8.376-12.443c-4.259,2.866-8.479,5.897-12.543,9.009l9.117,11.91
		C112.109,60.855,116.08,58.004,120.087,55.307z"/>
	<path d="M86.328,82.815L75.832,72.099c-3.663,3.588-7.264,7.337-10.705,11.143L76.254,93.3
		C79.492,89.719,82.881,86.191,86.328,82.815z"/>
	<path d="M158.262,34.43l-5.955-13.768c-4.692,2.029-9.393,4.237-13.97,6.562l6.791,13.375
		C149.432,38.413,153.851,36.338,158.262,34.43z"/>
	<path d="M242.816,15.194l-0.6-14.988c-5.134,0.206-10.319,0.571-15.409,1.086l1.51,14.924
		C233.106,15.731,237.985,15.388,242.816,15.194z"/>
	<path d="M0,252.5h15c0-4.832,0.147-9.722,0.437-14.533l-14.973-0.902C0.156,242.175,0,247.368,0,252.5z"/>
	<path d="M4.199,206.403l14.751,2.723c0.875-4.744,1.91-9.522,3.075-14.203L7.469,191.3C6.23,196.277,5.13,201.359,4.199,206.403z"
		/>
	<path d="M16.775,161.817l13.999,5.389c1.736-4.51,3.635-9.022,5.645-13.414l-13.64-6.242
		C20.641,152.221,18.621,157.021,16.775,161.817z"/>
	<path d="M199.646,20.9l-3.324-14.627c-5.003,1.137-10.036,2.445-14.958,3.888l4.219,14.395
		C190.21,23.199,194.941,21.97,199.646,20.9z"/>
	<path d="M384.913,449.693l8.376,12.443c4.259-2.866,8.479-5.897,12.543-9.009l-9.117-11.91
		C392.891,444.145,388.92,446.996,384.913,449.693z"/>
	<path d="M305.354,484.101l3.324,14.627c5.003-1.137,10.036-2.445,14.958-3.888l-4.219-14.395
		C314.79,481.802,310.059,483.031,305.354,484.101z"/>
	<path d="M446.886,388.992l12.269,8.631c2.953-4.197,5.814-8.542,8.506-12.913l-12.772-7.865
		C452.356,380.957,449.664,385.044,446.886,388.992z"/>
	<path d="M346.738,470.569l5.955,13.768c4.692-2.029,9.393-4.237,13.97-6.562l-6.791-13.375
		C355.568,466.586,351.149,468.661,346.738,470.569z"/>
	<path d="M490,252.5c0,4.832-0.147,9.722-0.437,14.533l14.973,0.902c0.308-5.11,0.464-10.304,0.464-15.436H490z"/>
	<path d="M482.975,310.077l14.556,3.623c1.239-4.978,2.339-10.06,3.27-15.104l-14.751-2.723
		C485.174,300.618,484.14,305.396,482.975,310.077z"/>
	<path d="M468.582,351.208l13.64,6.242c2.138-4.671,4.158-9.472,6.004-14.268l-13.999-5.389
		C472.49,342.304,470.591,346.816,468.582,351.208z"/>
	<path d="M418.672,422.185l10.496,10.717c3.663-3.588,7.264-7.337,10.705-11.143L428.746,411.7
		C425.508,415.281,422.119,418.809,418.672,422.185z"/>
	<path d="M262.184,489.806l0.6,14.988c5.134-0.206,10.319-0.571,15.409-1.086l-1.51-14.924
		C271.894,489.269,267.015,489.612,262.184,489.806z"/>
	<path d="M460,252.5c0-55.426-21.584-107.533-60.775-146.725S307.925,45,252.5,45s-107.533,21.584-146.725,60.775
		S45,197.074,45,252.5s21.584,107.533,60.775,146.725S197.075,460,252.5,460s107.533-21.584,146.725-60.775S460,307.926,460,252.5z
		 M252.5,445c-51.419,0-99.76-20.023-136.118-56.383C80.023,352.26,60,303.919,60,252.5s20.023-99.76,56.382-136.117
		C152.74,80.023,201.081,60,252.5,60s99.76,20.023,136.118,56.383C424.977,152.74,445,201.081,445,252.5
		s-20.023,99.76-56.382,136.117C352.26,424.977,303.919,445,252.5,445z"/>
	<rect x="335" y="185" width="15" height="15"/>
	<rect x="305" y="185" width="15" height="15"/>
	<rect x="305" y="155" width="15" height="15"/>
	<rect x="155" y="185" width="15" height="15"/>
	<rect x="185" y="185" width="15" height="15"/>
	<rect x="185" y="155" width="15" height="15"/>
	<rect x="155" y="305" width="15" height="15"/>
	<rect x="185" y="305" width="15" height="15"/>
	<rect x="185" y="335" width="15" height="15"/>
	<rect x="335" y="305" width="15" height="15"/>
	<rect x="305" y="305" width="15" height="15"/>
	<rect x="305" y="335" width="15" height="15"/>
</g>
<g>
</g>
<g>
</g>
<g>
</g>
<g>
</g>
<g>
</g>
<g>
</g>
<g>
</g>
<g>
</g>
<g>
</g>
<g>
</g>
<g>
</g>
<g>
</g>
<g>
</g>
<g>
</g>
<g>
</g>
</svg>
