<?xml version="1.0" encoding="iso-8859-1"?>
<!-- Generator: Adobe Illustrator 19.0.0, SVG Export Plug-In . SVG Version: 6.00 Build 0)  -->
<svg version="1.1" id="Layer_1" xmlns="http://www.w3.org/2000/svg" xmlns:xlink="http://www.w3.org/1999/xlink" x="0px" y="0px"
	 viewBox="0 0 507.464 507.464" style="enable-background:new 0 0 507.464 507.464;" xml:space="preserve">
<g>
	<path d="M66.232,0v507.464l187.5-72.917l187.5,72.917V0H66.232z M426.232,485.536l-172.5-67.083l-172.5,67.083V15h345V485.536z"/>
	<rect x="96.232" y="415.504" width="15" height="14.82"/>
	<rect x="96.232" y="385.863" width="15" height="14.82"/>
	<rect x="96.232" y="356.224" width="15" height="14.82"/>
	<rect x="96.232" y="326.583" width="15" height="14.82"/>
	<rect x="96.232" y="296.942" width="15" height="14.82"/>
	<rect x="96.232" y="267.303" width="15" height="14.819"/>
	<rect x="96.232" y="237.662" width="15" height="14.82"/>
	<rect x="96.232" y="208.021" width="15" height="14.82"/>
	<rect x="96.232" y="178.382" width="15" height="14.819"/>
	<rect x="96.232" y="148.741" width="15" height="14.82"/>
	<rect x="96.232" y="119.101" width="15" height="14.82"/>
	<rect x="96.232" y="89.461" width="15" height="14.819"/>
	<rect x="96.232" y="59.82" width="15" height="14.82"/>
	<rect x="96.232" y="30" width="15" height="15"/>
	<rect x="366.232" y="30" width="15" height="15"/>
	<rect x="336.232" y="30" width="15" height="15"/>
	<rect x="306.232" y="30" width="15" height="15"/>
	<rect x="276.232" y="30" width="15" height="15"/>
	<rect x="246.232" y="30" width="15" height="15"/>
	<rect x="216.232" y="30" width="15" height="15"/>
	<rect x="186.232" y="30" width="15" height="15"/>
	<rect x="156.232" y="30" width="15" height="15"/>
	<rect x="126.232" y="30" width="15" height="15"/>
	<rect x="396.232" y="30" width="15" height="15"/>
	<rect x="396.232" y="415.504" width="15" height="14.82"/>
	<rect x="396.232" y="385.864" width="15" height="14.819"/>
	<rect x="396.232" y="356.224" width="15" height="14.82"/>
	<rect x="396.232" y="326.583" width="15" height="14.82"/>
	<rect x="396.232" y="296.943" width="15" height="14.819"/>
	<rect x="396.232" y="267.303" width="15" height="14.82"/>
	<rect x="396.232" y="237.662" width="15" height="14.82"/>
	<rect x="396.232" y="208.022" width="15" height="14.819"/>
	<rect x="396.232" y="178.382" width="15" height="14.82"/>
	<rect x="396.232" y="148.741" width="15" height="14.82"/>
	<rect x="396.232" y="119.101" width="15" height="14.82"/>
	<rect x="396.232" y="89.461" width="15" height="14.82"/>
	<rect x="396.232" y="59.82" width="15" height="14.82"/>
	<rect x="287.286" y="402.702" transform="matrix(-0.932 -0.3624 0.3624 -0.932 420.503 899.2789)" width="14.613" height="15"/>
	<rect x="260.045" y="392.108" transform="matrix(-0.932 -0.3625 0.3625 -0.932 371.684 868.9471)" width="14.614" height="15"/>
	<rect x="205.372" y="402.894" transform="matrix(-0.3625 -0.932 0.932 -0.3625 -92.2791 757.2779)" width="15" height="14.613"/>
	<rect x="178.132" y="413.488" transform="matrix(-0.3624 -0.932 0.932 -0.3624 -139.2753 746.3141)" width="15" height="14.614"/>
	<rect x="232.612" y="392.301" transform="matrix(-0.3624 -0.932 0.932 -0.3624 -45.3042 768.225)" width="15" height="14.614"/>
	<rect x="123.652" y="434.675" transform="matrix(0.3624 0.932 -0.932 0.3624 495.5511 159.5597)" width="15" height="14.614"/>
	<rect x="341.766" y="423.888" transform="matrix(-0.932 -0.3624 0.3624 -0.932 518.0818 959.9551)" width="14.614" height="15"/>
	<rect x="369.005" y="434.481" transform="matrix(-0.932 -0.3625 0.3625 -0.932 566.8364 990.3051)" width="14.614" height="15"/>
	<rect x="314.525" y="413.295" transform="matrix(-0.932 -0.3625 0.3625 -0.932 469.2602 929.6261)" width="14.614" height="15"/>
	<rect x="150.892" y="424.082" transform="matrix(0.3624 0.932 -0.932 0.3624 503.0456 127.4177)" width="15" height="14.613"/>
	<rect x="96.232" y="443.68" width="15" height="14.82"/>
	<rect x="396.232" y="443.68" width="15" height="14.82"/>
	<path d="M345.526,197.318l-62.96-9.148l-28.157-57.051l-28.157,57.051l-62.96,9.148l45.559,44.409l-10.755,62.706l56.313-29.605
		l56.313,29.605l-10.755-62.706L345.526,197.318z M254.409,257.881l-36.392,19.133l6.95-40.522l-29.441-28.698l40.687-5.912
		l18.196-36.869l18.196,36.869l40.687,5.912l-29.441,28.698l6.95,40.522L254.409,257.881z"/>
</g>
<g>
</g>
<g>
</g>
<g>
</g>
<g>
</g>
<g>
</g>
<g>
</g>
<g>
</g>
<g>
</g>
<g>
</g>
<g>
</g>
<g>
</g>
<g>
</g>
<g>
</g>
<g>
</g>
<g>
</g>
</svg>
