<?xml version="1.0" encoding="iso-8859-1"?>
<!-- Generator: Adobe Illustrator 19.0.0, SVG Export Plug-In . SVG Version: 6.00 Build 0)  -->
<svg version="1.1" id="Layer_1" xmlns="http://www.w3.org/2000/svg" xmlns:xlink="http://www.w3.org/1999/xlink" x="0px" y="0px"
	 viewBox="0 0 505 505" style="enable-background:new 0 0 505 505;" xml:space="preserve">
<g>
	<path d="M482.5,0h-460C10.093,0,0,10.094,0,22.5V60v15v430h505V75V60V22.5C505,10.094,494.906,0,482.5,0z M490,490H15V75h475V490z
		 M15,60V22.5c0-4.136,3.364-7.5,7.5-7.5h460c4.136,0,7.5,3.364,7.5,7.5V60H15z"/>
	<rect x="91.5" y="30" width="15" height="15"/>
	<rect x="61.5" y="30" width="15" height="15"/>
	<rect x="31.5" y="30" width="15" height="15"/>
	<path d="M119.132,324.365C163.567,359.78,209.685,378.5,252.5,378.5c42.814,0,88.933-18.72,133.368-54.135
		c33.254-26.504,53.703-52.666,54.557-53.768l3.568-4.598l-3.568-4.598c-0.854-1.102-21.303-27.264-54.557-53.768
		C341.433,172.22,295.314,153.5,252.5,153.5c-42.815,0-88.933,18.72-133.368,54.135c-33.254,26.504-53.703,52.666-54.558,53.768
		L61.006,266l3.568,4.598C65.429,271.699,85.878,297.861,119.132,324.365z M128.755,219.147
		C157.807,196.042,202.859,168.5,252.5,168.5c49.642,0,94.693,27.542,123.745,50.647c23.93,19.03,41.268,38.286,48.541,46.853
		c-7.273,8.566-24.611,27.822-48.541,46.853C347.193,335.958,302.142,363.5,252.5,363.5c-49.641,0-94.693-27.542-123.745-50.647
		c-23.93-19.03-41.269-38.287-48.541-46.853C87.487,257.434,104.825,238.178,128.755,219.147z"/>
	<path d="M254.5,343.5c42.733,0,77.5-34.767,77.5-77.5c0-6.129-0.736-12.279-2.188-18.281l-2.685-11.089l-9.115,6.861
		C314.092,246.44,309.42,248,304.5,248c-12.406,0-22.5-10.094-22.5-22.5c0-6.499,2.817-12.682,7.73-16.963l8.58-7.479l-10.256-4.935
		c-10.517-5.059-21.806-7.624-33.555-7.624c-42.734,0-77.5,34.767-77.5,77.5S211.766,343.5,254.5,343.5z M254.5,203.5
		c6.155,0,12.149,0.871,17.917,2.598c-3.508,5.794-5.417,12.49-5.417,19.402c0,20.678,16.822,37.5,37.5,37.5
		c4.246,0,8.384-0.698,12.293-2.054c0.138,1.683,0.207,3.37,0.207,5.054c0,34.463-28.037,62.5-62.5,62.5
		c-34.462,0-62.5-28.037-62.5-62.5S220.038,203.5,254.5,203.5z"/>
	<rect x="70.5" y="173" width="15" height="15"/>
	<rect x="419.5" y="173" width="15" height="15"/>
	<rect x="70.5" y="344" width="15" height="15"/>
	<rect x="419.5" y="344" width="15" height="15"/>
</g>
<g>
</g>
<g>
</g>
<g>
</g>
<g>
</g>
<g>
</g>
<g>
</g>
<g>
</g>
<g>
</g>
<g>
</g>
<g>
</g>
<g>
</g>
<g>
</g>
<g>
</g>
<g>
</g>
<g>
</g>
</svg>
