<?xml version="1.0" encoding="iso-8859-1"?>
<!-- Generator: Adobe Illustrator 19.0.0, SVG Export Plug-In . SVG Version: 6.00 Build 0)  -->
<svg version="1.1" id="Layer_1" xmlns="http://www.w3.org/2000/svg" xmlns:xlink="http://www.w3.org/1999/xlink" x="0px" y="0px"
	 viewBox="0 0 505 505" style="enable-background:new 0 0 505 505;" xml:space="preserve">
<g>
	<rect x="284.5" y="59.883" width="15" height="35"/>
	<path d="M346.5,490H307c-4.136,0-7.5-3.364-7.5-7.5v-3.797v-63.896h-15v52.88l-162-118.983V186.5h-15V345H50
		c-13.51,0-24.5-10.99-24.5-24.5v-136c0-13.51,10.99-24.5,24.5-24.5h67.458L299.5,26.297V22.5c0-4.136,3.364-7.5,7.5-7.5h39.5
		v79.883h15V0H307c-11.018,0-20.212,7.961-22.132,18.433L112.542,145H50c-21.78,0-39.5,17.72-39.5,39.5v136
		c0,21.78,17.72,39.5,39.5,39.5h62.542l172.326,126.567C286.788,497.039,295.982,505,307,505h54.5v-90.193h-15V490z"/>
	<path d="M357,117.345c-75.817,0-137.5,61.683-137.5,137.5s61.683,137.5,137.5,137.5s137.5-61.683,137.5-137.5
		S432.817,117.345,357,117.345z M357,377.345c-67.547,0-122.5-54.953-122.5-122.5s54.953-122.5,122.5-122.5
		s122.5,54.953,122.5,122.5S424.547,377.345,357,377.345z"/>
	<path d="M438.12,207.009l-4.92-8.329L300.836,331.044l8.327,4.921c14.444,8.535,30.986,13.047,47.837,13.047
		c51.924,0,94.167-42.243,94.167-94.167C451.167,237.997,446.655,221.456,438.12,207.009z M357,334.012
		c-10.856,0-21.558-2.226-31.427-6.492l104.102-104.101c4.267,9.87,6.492,20.571,6.492,31.426
		C436.167,298.497,400.653,334.012,357,334.012z"/>
	<path d="M404.837,173.726c-14.444-8.535-30.986-13.047-47.837-13.047c-51.924,0-94.167,42.243-94.167,94.166
		c0,16.849,4.512,33.391,13.047,47.837l4.92,8.328l132.364-132.363L404.837,173.726z M284.325,286.271
		c-4.267-9.87-6.492-20.571-6.492-31.427c0-43.652,35.514-79.166,79.167-79.166c10.856,0,21.558,2.226,31.427,6.492L284.325,286.271
		z"/>
</g>
<g>
</g>
<g>
</g>
<g>
</g>
<g>
</g>
<g>
</g>
<g>
</g>
<g>
</g>
<g>
</g>
<g>
</g>
<g>
</g>
<g>
</g>
<g>
</g>
<g>
</g>
<g>
</g>
<g>
</g>
</svg>
