<?xml version="1.0" encoding="iso-8859-1"?>
<!-- Generator: Adobe Illustrator 19.0.0, SVG Export Plug-In . SVG Version: 6.00 Build 0)  -->
<svg version="1.1" id="Layer_1" xmlns="http://www.w3.org/2000/svg" xmlns:xlink="http://www.w3.org/1999/xlink" x="0px" y="0px"
	 viewBox="0 0 510.8 510.8" style="enable-background:new 0 0 510.8 510.8;" xml:space="preserve">
<g>
	<polygon points="507.428,151.249 507.721,150.956 359.579,0 292.438,67.144 326.638,102.442 3.029,102.442 3.029,510.8 
		18.029,510.8 18.029,117.442 362.058,117.442 313.484,67.31 359.479,21.314 486.607,150.856 486.215,151.249 486.558,151.592 
		359.529,278.62 313.567,232.657 363.783,182.442 83.029,182.442 83.029,510.8 98.029,510.8 98.029,197.442 327.57,197.442 
		292.354,232.657 359.529,299.833 507.771,151.592 	"/>
	<rect x="43.029" y="469.981" width="15" height="15"/>
	<rect x="43.029" y="305.981" width="15" height="15"/>
	<rect x="43.029" y="223.981" width="15" height="15"/>
	<rect x="43.029" y="264.981" width="15" height="15"/>
	<rect x="43.029" y="182.981" width="15" height="15"/>
	<rect x="43.029" y="346.981" width="15" height="15"/>
	<rect x="43.029" y="428.981" width="15" height="15"/>
	<rect x="43.029" y="387.981" width="15" height="15"/>
	<rect x="247.348" y="141.3" width="15" height="15"/>
	<polygon points="57.348,141.3 43.029,141.3 43.029,156.981 58.029,156.981 58.029,148.8 57.348,148.8 	"/>
	<rect x="206.348" y="141.3" width="15" height="15"/>
	<rect x="329.348" y="141.3" width="15" height="15"/>
	<rect x="288.348" y="141.3" width="15" height="15"/>
	<rect x="165.348" y="141.3" width="15" height="15"/>
	<rect x="83.348" y="141.3" width="15" height="15"/>
	<rect x="124.348" y="141.3" width="15" height="15"/>
</g>
<g>
</g>
<g>
</g>
<g>
</g>
<g>
</g>
<g>
</g>
<g>
</g>
<g>
</g>
<g>
</g>
<g>
</g>
<g>
</g>
<g>
</g>
<g>
</g>
<g>
</g>
<g>
</g>
<g>
</g>
</svg>
