<?xml version="1.0" encoding="iso-8859-1"?>
<!-- Generator: Adobe Illustrator 19.0.0, SVG Export Plug-In . SVG Version: 6.00 Build 0)  -->
<svg version="1.1" id="Layer_1" xmlns="http://www.w3.org/2000/svg" xmlns:xlink="http://www.w3.org/1999/xlink" x="0px" y="0px"
	 viewBox="0 0 505 505" style="enable-background:new 0 0 505 505;" xml:space="preserve">
<g>
	<polygon points="252.5,329.106 338.106,243.5 300.714,206.107 278.94,227.882 278.94,142.5 263.94,142.5 263.94,264.095 
		300.714,227.32 316.894,243.5 252.5,307.894 188.106,243.5 204.286,227.32 241.06,264.095 241.06,114.5 226.06,114.5 
		226.06,227.882 204.286,206.107 166.894,243.5 	"/>
	<path d="M362.5,0h-220C121.822,0,105,16.822,105,37.5V95v315v57.5c0,20.678,16.822,37.5,37.5,37.5h220
		c20.678,0,37.5-16.822,37.5-37.5V410V95V37.5C400,16.822,383.178,0,362.5,0z M120,37.5c0-12.406,10.093-22.5,22.5-22.5h220
		c12.407,0,22.5,10.094,22.5,22.5V80H120V37.5z M385,467.5c0,12.406-10.093,22.5-22.5,22.5h-220c-12.407,0-22.5-10.094-22.5-22.5
		V425h265V467.5z M385,410H120V95h265V410z"/>
	<rect x="192.5" y="35" width="104" height="15"/>
	<rect x="312.5" y="35" width="15" height="15"/>
	<path d="M252.5,481c12.407,0,22.5-10.094,22.5-22.5S264.907,436,252.5,436S230,446.094,230,458.5S240.093,481,252.5,481z
		 M252.5,451c4.136,0,7.5,3.364,7.5,7.5s-3.364,7.5-7.5,7.5s-7.5-3.364-7.5-7.5S248.364,451,252.5,451z"/>
	<rect x="229.5" y="356" width="15" height="15"/>
	<rect x="169.5" y="356" width="15" height="15"/>
	<rect x="319.5" y="356" width="15" height="15"/>
	<rect x="289.5" y="356" width="15" height="15"/>
	<rect x="199.5" y="356" width="15" height="15"/>
	<rect x="259.5" y="356" width="15" height="15"/>
	<rect x="263.94" y="114.5" width="15" height="15"/>
</g>
<g>
</g>
<g>
</g>
<g>
</g>
<g>
</g>
<g>
</g>
<g>
</g>
<g>
</g>
<g>
</g>
<g>
</g>
<g>
</g>
<g>
</g>
<g>
</g>
<g>
</g>
<g>
</g>
<g>
</g>
</svg>
