<?xml version="1.0" encoding="iso-8859-1"?>
<!-- Generator: Adobe Illustrator 19.0.0, SVG Export Plug-In . SVG Version: 6.00 Build 0)  -->
<svg version="1.1" id="Layer_1" xmlns="http://www.w3.org/2000/svg" xmlns:xlink="http://www.w3.org/1999/xlink" x="0px" y="0px"
	 viewBox="0 0 505 505" style="enable-background:new 0 0 505 505;" xml:space="preserve">
<g>
	<path d="M409.563,339.246c-8.806-6.065-14.063-16.071-14.063-26.764v-24.148h-15v24.148c0,15.628,7.683,30.251,20.553,39.116
		c15.308,10.547,24.447,27.94,24.447,46.528V416h-91.954H138.454H50.5v-17.873c0-18.588,9.139-35.981,24.447-46.527
		c12.87-8.866,20.553-23.489,20.553-39.117V189.5c0-70.177,52.272-130.78,121.591-140.97l6.409-0.941V27.5
		c0-6.893,5.607-12.5,12.5-12.5s12.5,5.607,12.5,12.5v19.735l6.609,0.791c29.055,3.475,55.986,15.667,77.882,35.26l10.002-11.178
		c-22.534-20.164-49.896-33.237-79.494-38.045V27.5C263.5,12.337,251.164,0,236,0s-27.5,12.337-27.5,27.5v7.27
		c-34.525,6.554-66.04,24.622-89.31,51.338C94.24,114.751,80.5,151.47,80.5,189.5v122.982c0,10.692-5.257,20.698-14.063,26.765
		C47.065,352.593,35.5,374.604,35.5,398.127V431h105.875c10.662,43.235,49.48,74,94.625,74s83.963-30.765,94.625-74H440.5v-32.873
		C440.5,374.604,428.935,352.593,409.563,339.246z M236,490c-36.937,0-68.886-24.327-79.114-59h158.228
		C304.886,465.673,272.937,490,236,490z"/>
	<path d="M382,91c-48.248,0-87.5,39.252-87.5,87.5S333.752,266,382,266s87.5-39.252,87.5-87.5S430.248,91,382,91z M382,251
		c-39.977,0-72.5-32.523-72.5-72.5S342.023,106,382,106s72.5,32.523,72.5,72.5S421.977,251,382,251z"/>
	<rect x="377.5" y="138.5" width="15" height="58"/>
	<rect x="377.5" y="206.5" width="15" height="15"/>
	<rect x="257" y="171" width="15" height="15"/>
	<rect x="197" y="171" width="15" height="15"/>
	<rect x="227" y="171" width="15" height="15"/>
</g>
<g>
</g>
<g>
</g>
<g>
</g>
<g>
</g>
<g>
</g>
<g>
</g>
<g>
</g>
<g>
</g>
<g>
</g>
<g>
</g>
<g>
</g>
<g>
</g>
<g>
</g>
<g>
</g>
<g>
</g>
</svg>
