<?xml version="1.0" encoding="iso-8859-1"?>
<!-- Generator: Adobe Illustrator 19.0.0, SVG Export Plug-In . SVG Version: 6.00 Build 0)  -->
<svg version="1.1" id="Layer_1" xmlns="http://www.w3.org/2000/svg" xmlns:xlink="http://www.w3.org/1999/xlink" x="0px" y="0px"
	 viewBox="0 0 512 512" style="enable-background:new 0 0 512 512;" xml:space="preserve">
<g>
	<polygon points="173.797,449.078 340.711,449.078 332.447,434.766 182.06,434.766 	"/>
	<polygon points="243.708,281.065 234.22,281.065 204.223,333.021 174.227,281.065 157.7,281.065 195.96,347.333 187.697,361.645 
		141.174,281.065 124.648,281.065 179.434,375.957 149.135,428.436 64.05,281.065 47.524,281.065 140.872,442.748 132.609,457.06 
		30.998,281.065 14.471,281.065 128,477.702 137.141,477.702 247.189,287.094 	"/>
	<polygon points="380.346,455.408 372.083,441.095 464.476,281.065 447.95,281.065 363.819,426.783 333.521,374.305 
		387.353,281.065 370.827,281.065 325.258,359.993 316.995,345.681 354.301,281.065 337.774,281.065 308.732,331.369 
		279.689,281.065 270.799,281.065 267.318,287.094 377.366,477.702 384,477.702 497.529,281.065 481.002,281.065 	"/>
	<polygon points="398.635,59.646 390.372,73.959 491.342,248.844 474.816,248.844 382.109,88.271 373.846,102.583 458.29,248.844 
		397.693,248.844 343.547,155.061 335.284,169.373 381.167,248.844 364.64,248.844 327.021,183.685 318.758,197.998 
		348.114,248.844 289.402,248.844 281.139,263.633 512,263.633 512,256 	"/>
	<polygon points="220.621,367.975 212.358,382.287 302.149,382.287 293.886,367.975 	"/>
	<polygon points="237.148,339.35 228.885,353.663 285.622,353.663 277.359,339.35 	"/>
	<polygon points="233.368,263.633 225.105,248.844 163.887,248.844 194.496,195.827 186.233,181.515 147.361,248.844 
		130.834,248.844 177.97,167.203 169.706,152.891 114.308,248.844 53.711,248.844 139.408,100.412 131.145,86.1 37.185,248.844 
		20.658,248.844 122.882,71.788 114.618,57.476 0,256 0,263.633 	"/>
	<path d="M260.734,263.633L388.571,42.214L384,34.298H128l-3.318,5.746l129.09,223.59H260.734z M145.481,48.61h222.948
		l-8.263,14.312H153.744L145.481,48.61z M162.007,77.234h189.895l-30.299,52.478H192.305L162.007,77.234z M200.569,144.025H313.34
		l-8.263,14.312h-96.245L200.569,144.025z M296.814,172.65l-39.859,69.038l-39.859-69.038H296.814z"/>
	<polygon points="165.533,463.39 157.27,477.702 357.237,477.702 348.974,463.39 	"/>
</g>
<g>
</g>
<g>
</g>
<g>
</g>
<g>
</g>
<g>
</g>
<g>
</g>
<g>
</g>
<g>
</g>
<g>
</g>
<g>
</g>
<g>
</g>
<g>
</g>
<g>
</g>
<g>
</g>
<g>
</g>
</svg>
