<?xml version="1.0" encoding="iso-8859-1"?>
<!-- Generator: Adobe Illustrator 19.0.0, SVG Export Plug-In . SVG Version: 6.00 Build 0)  -->
<svg version="1.1" id="Layer_1" xmlns="http://www.w3.org/2000/svg" xmlns:xlink="http://www.w3.org/1999/xlink" x="0px" y="0px"
	 viewBox="0 0 506 506" style="enable-background:new 0 0 506 506;" xml:space="preserve">
<g>
	<path d="M481,218h-15v212.5H209v-204H75v204H41V218H26v212.5H1v75h505v-75h-25V218z M90,241.5h104v188H90V241.5z M491,490.5H16v-45
		h475V490.5z"/>
	<path d="M1,0.5v45h25V84h15V45.5h425V84h15V45.5h25v-45H1z M491,30.5H16v-15h475V30.5z"/>
	<path d="M31.95,205.5h0.1c9.803,0,18.585-4.442,24.45-11.414c5.866,6.972,14.647,11.414,24.45,11.414h0.1
		c9.803,0,18.585-4.442,24.45-11.414c5.866,6.972,14.647,11.414,24.45,11.414h0.1c9.803,0,18.585-4.442,24.45-11.414
		c5.866,6.972,14.647,11.414,24.45,11.414h0.1c9.803,0,18.585-4.442,24.45-11.414c5.866,6.972,14.647,11.414,24.45,11.414h0.1
		c9.803,0,18.585-4.442,24.45-11.414c5.866,6.972,14.647,11.414,24.45,11.414h0.1c9.803,0,18.585-4.442,24.45-11.414
		c5.866,6.972,14.647,11.414,24.45,11.414h0.1c9.803,0,18.585-4.442,24.45-11.414c5.866,6.972,14.647,11.414,24.45,11.414h0.1
		c9.803,0,18.585-4.442,24.45-11.414c5.866,6.972,14.647,11.414,24.45,11.414h0.1c9.803,0,18.585-4.442,24.45-11.414
		c5.866,6.972,14.647,11.414,24.45,11.414h0.1c17.617,0,31.95-14.333,31.95-31.95V100.5h-49h-15h-34h-15h-34h-15h-34h-15h-34h-15
		h-34h-15h-34h-15h-34H98H64H49H0v73.05C0,191.167,14.333,205.5,31.95,205.5z M456,115.5h34v58.05c0,9.347-7.604,16.95-16.95,16.95
		h-0.1c-9.347,0-16.95-7.604-16.95-16.95V115.5z M407,115.5h34v58.05c0,9.347-7.604,16.95-16.95,16.95h-0.1
		c-9.347,0-16.95-7.604-16.95-16.95V115.5z M358,115.5h34v58.05c0,9.347-7.604,16.95-16.95,16.95h-0.1
		c-9.347,0-16.95-7.604-16.95-16.95V115.5z M309,115.5h34v58.05c0,9.347-7.604,16.95-16.95,16.95h-0.1
		c-9.347,0-16.95-7.604-16.95-16.95V115.5z M260,115.5h34v58.05c0,9.347-7.604,16.95-16.95,16.95h-0.1
		c-9.347,0-16.95-7.604-16.95-16.95V115.5z M211,115.5h34v58.05c0,9.347-7.604,16.95-16.95,16.95h-0.1
		c-9.347,0-16.95-7.604-16.95-16.95V115.5z M162,115.5h34v58.05c0,9.347-7.604,16.95-16.95,16.95h-0.1
		c-9.347,0-16.95-7.604-16.95-16.95V115.5z M113,115.5h34v58.05c0,9.347-7.604,16.95-16.95,16.95h-0.1
		c-9.347,0-16.95-7.604-16.95-16.95V115.5z M64,115.5h34v58.05c0,9.347-7.604,16.95-16.95,16.95h-0.1
		c-9.347,0-16.95-7.604-16.95-16.95V115.5z M15,115.5h34v58.05c0,9.347-7.604,16.95-16.95,16.95h-0.1
		c-9.347,0-16.95-7.604-16.95-16.95V115.5z"/>
	<path d="M234,386.5h215v-160H234V386.5z M249,241.5h185v130H249V241.5z"/>
	<rect x="303" y="303.5" width="15" height="15"/>
	<rect x="333" y="303.5" width="15" height="15"/>
	<rect x="363" y="303.5" width="15" height="15"/>
	<rect x="105" y="308" width="15" height="48"/>
</g>
<g>
</g>
<g>
</g>
<g>
</g>
<g>
</g>
<g>
</g>
<g>
</g>
<g>
</g>
<g>
</g>
<g>
</g>
<g>
</g>
<g>
</g>
<g>
</g>
<g>
</g>
<g>
</g>
<g>
</g>
</svg>
