<?xml version="1.0" encoding="iso-8859-1"?>
<!-- Generator: Adobe Illustrator 19.0.0, SVG Export Plug-In . SVG Version: 6.00 Build 0)  -->
<svg version="1.1" id="Layer_1" xmlns="http://www.w3.org/2000/svg" xmlns:xlink="http://www.w3.org/1999/xlink" x="0px" y="0px"
	 viewBox="0 0 505 505" style="enable-background:new 0 0 505 505;" xml:space="preserve">
<g>
	<path d="M455,78.5c0-15.163-12.337-27.5-27.5-27.5H310V27.5C310,12.337,297.663,0,282.5,0h-60C207.337,0,195,12.337,195,27.5V51
		H77.5C62.337,51,50,63.337,50,78.5V146h15.6l30,359h313.799l30-359H455V78.5z M210,27.5c0-6.893,5.607-12.5,12.5-12.5h60
		c6.893,0,12.5,5.607,12.5,12.5V51h-85V27.5z M65,78.5C65,71.607,70.607,66,77.5,66H195h115h117.5c6.893,0,12.5,5.607,12.5,12.5V131
		H65V78.5z M395.601,490H109.399L80.653,146h343.693L395.601,490z"/>
	<rect x="11.291" y="299" transform="matrix(0.0643 0.9979 -0.9979 0.0643 448.64 134.5277)" width="282.585" height="15"/>
	<rect x="344.917" y="165.208" transform="matrix(0.9979 0.0643 -0.0643 0.9979 20.445 -22.034)" width="15" height="282.585"/>
	<rect x="245" y="165.5" width="15" height="282"/>
	<rect x="195.042" y="287.5" width="15" height="15"/>
	<rect x="195.042" y="317.5" width="15" height="14"/>
	<rect x="195.042" y="257.5" width="15" height="15"/>
	<rect x="294.958" y="257.5" width="15" height="15"/>
	<rect x="294.958" y="317.5" width="15" height="14"/>
	<rect x="294.958" y="287.5" width="15" height="15"/>
</g>
<g>
</g>
<g>
</g>
<g>
</g>
<g>
</g>
<g>
</g>
<g>
</g>
<g>
</g>
<g>
</g>
<g>
</g>
<g>
</g>
<g>
</g>
<g>
</g>
<g>
</g>
<g>
</g>
<g>
</g>
</svg>
