<?xml version="1.0" encoding="iso-8859-1"?>
<!-- Generator: Adobe Illustrator 19.0.0, SVG Export Plug-In . SVG Version: 6.00 Build 0)  -->
<svg version="1.1" id="Layer_1" xmlns="http://www.w3.org/2000/svg" xmlns:xlink="http://www.w3.org/1999/xlink" x="0px" y="0px"
	 viewBox="0 0 505.606 505.606" style="enable-background:new 0 0 505.606 505.606;" xml:space="preserve">
<g>
	<path d="M87.997,145.621l-12.835-7.764c-2.808,4.643-5.481,9.447-7.947,14.282l13.362,6.814
		C82.879,154.441,85.375,149.955,87.997,145.621z"/>
	<path d="M416.915,361.143l12.784,7.846c3.15-5.132,6.137-10.468,8.876-15.857l-13.371-6.797
		C422.646,351.368,419.856,356.35,416.915,361.143z"/>
	<path d="M249.228,457.756c-12.626,0-25.342-1.304-37.794-3.874C122.131,435.447,57.315,352.683,57.315,257.088
		c0-3.51,0.107-7.04,0.281-10.572l34.07,34.07l10.606-10.607l-51.136-51.136L0,269.979l10.606,10.607l31.883-31.883
		c-0.103,2.801-0.174,5.599-0.174,8.385c0,49.4,16.318,97.69,45.948,135.976c30.119,38.917,72.784,65.732,120.137,75.508
		c13.448,2.776,27.184,4.185,40.827,4.185c67.083,0,131.348-33.957,171.908-90.835l-12.213-8.709
		C371.171,426.151,311.473,457.756,249.228,457.756z"/>
	<path d="M495,224.146l-31.831,31.831c0.081-2.476,0.134-4.949,0.134-7.411c0-49.497-16.374-97.864-46.106-136.192
		c-30.218-38.954-72.996-65.742-120.455-75.43c-13.31-2.717-26.898-4.094-40.388-4.094c-67.628,0-132.194,34.399-172.712,92.019
		l12.27,8.629c37.713-53.63,97.692-85.647,160.443-85.647c12.484,0,25.063,1.275,37.388,3.791
		C383.3,69.921,448.303,152.74,448.303,248.566c0,3.221-0.092,6.462-0.24,9.704l-34.123-34.124l-10.606,10.607l51.136,51.136
		l51.137-51.136L495,224.146z"/>
	<path d="M380.303,178.303h-71.888l-10-34h-91.224l-10,34h-71.888v165h255V178.303z M365.303,328.303h-225v-135h68.112l10-34h68.776
		l10,34h68.112V328.303z"/>
	<rect x="244.803" y="219.303" width="15" height="15"/>
	<rect x="244.803" y="274.303" width="15" height="15"/>
	<rect x="217.303" y="246.803" width="15" height="15"/>
	<rect x="272.303" y="246.803" width="15" height="15"/>
	<path d="M252.303,193.803c-33.36,0-60.5,27.141-60.5,60.5s27.14,60.5,60.5,60.5s60.5-27.141,60.5-60.5
		S285.663,193.803,252.303,193.803z M252.303,299.803c-25.089,0-45.5-20.411-45.5-45.5s20.411-45.5,45.5-45.5s45.5,20.411,45.5,45.5
		S277.392,299.803,252.303,299.803z"/>
</g>
<g>
</g>
<g>
</g>
<g>
</g>
<g>
</g>
<g>
</g>
<g>
</g>
<g>
</g>
<g>
</g>
<g>
</g>
<g>
</g>
<g>
</g>
<g>
</g>
<g>
</g>
<g>
</g>
<g>
</g>
</svg>
