<?xml version="1.0" encoding="iso-8859-1"?>
<!-- Generator: Adobe Illustrator 19.0.0, SVG Export Plug-In . SVG Version: 6.00 Build 0)  -->
<svg version="1.1" id="Layer_1" xmlns="http://www.w3.org/2000/svg" xmlns:xlink="http://www.w3.org/1999/xlink" x="0px" y="0px"
	 viewBox="0 0 505 505" style="enable-background:new 0 0 505 505;" xml:space="preserve">
<g>
	<path d="M431.044,73.956C383.354,26.265,319.945,0,252.5,0S121.646,26.265,73.956,73.956C26.265,121.646,0,185.055,0,252.5V299v15
		v66c0,31.928,24.07,58.323,55.014,62.036C55.304,476.803,83.666,505,118.5,505c35.014,0,63.5-28.486,63.5-63.5V300
		c0-35.014-28.486-63.5-63.5-63.5c-19.996,0-37.852,9.3-49.5,23.791V257.5C69,156.869,150.869,75,251.5,75S434,156.869,434,257.5
		v0.422c-11.642-13.127-28.616-21.422-47.5-21.422c-35.014,0-63.5,28.486-63.5,63.5v141.5c0,35.014,28.486,63.5,63.5,63.5
		c34.834,0,63.196-28.197,63.486-62.964C480.93,438.323,505,411.928,505,380v-66v-15v-46.5
		C505,185.055,478.735,121.646,431.044,73.956z M15,380v-66h40v112.908C32.359,423.303,15,403.641,15,380z M118.5,251.5
		c26.743,0,48.5,21.757,48.5,48.5v141.5c0,26.743-21.757,48.5-48.5,48.5S70,468.243,70,441.5V300
		C70,273.257,91.757,251.5,118.5,251.5z M386.5,490c-26.743,0-48.5-21.757-48.5-48.5V300c0-26.743,21.757-48.5,48.5-48.5
		c23.38,0,42.948,16.63,47.5,38.682V314h1v127.5C435,468.243,413.243,490,386.5,490z M490,380c0,23.641-17.359,43.303-40,46.908V314
		h40V380z M449.975,299c-0.054-3.457-0.387-6.845-0.975-10.149V257.5C449,148.599,360.402,60,251.5,60S54,148.599,54,257.5V299H15
		v-46.5C15,121.542,121.542,15,252.5,15C383.458,15,490,121.542,490,252.5V299H449.975z"/>
	<rect x="111" y="337.5" width="15" height="15"/>
	<rect x="111" y="397.5" width="15" height="15"/>
	<rect x="111" y="367.5" width="15" height="15"/>
	<rect x="379" y="337.5" width="15" height="15"/>
	<rect x="379" y="367.5" width="15" height="15"/>
	<rect x="379" y="397.5" width="15" height="15"/>
</g>
<g>
</g>
<g>
</g>
<g>
</g>
<g>
</g>
<g>
</g>
<g>
</g>
<g>
</g>
<g>
</g>
<g>
</g>
<g>
</g>
<g>
</g>
<g>
</g>
<g>
</g>
<g>
</g>
<g>
</g>
</svg>
