<?xml version="1.0" encoding="iso-8859-1"?>
<!-- Generator: Adobe Illustrator 19.0.0, SVG Export Plug-In . SVG Version: 6.00 Build 0)  -->
<svg version="1.1" id="Layer_1" xmlns="http://www.w3.org/2000/svg" xmlns:xlink="http://www.w3.org/1999/xlink" x="0px" y="0px"
	 viewBox="0 0 505 505" style="enable-background:new 0 0 505 505;" xml:space="preserve">
<g>
	<path d="M431.044,73.956C383.354,26.265,319.945,0,252.5,0S121.646,26.265,73.956,73.956C26.265,121.646,0,185.055,0,252.5
		s26.265,130.854,73.956,178.544C121.646,478.735,185.055,505,252.5,505s130.854-26.265,178.544-73.956
		C478.735,383.354,505,319.945,505,252.5S478.735,121.646,431.044,73.956z M252.5,490C121.542,490,15,383.458,15,252.5
		S121.542,15,252.5,15S490,121.542,490,252.5S383.458,490,252.5,490z"/>
	<path d="M252.5,45C138.084,45,45,138.084,45,252.5S138.084,460,252.5,460S460,366.916,460,252.5S366.916,45,252.5,45z M252.5,445
		C146.355,445,60,358.645,60,252.5S146.355,60,252.5,60C358.645,60,445,146.355,445,252.5S358.645,445,252.5,445z"/>
	<path d="M246.768,95.104c4.585-0.168,9.083-0.137,13.5,0.077l0.727-14.982c-2.768-0.134-5.589-0.202-8.386-0.202
		c-2.093,0-4.241,0.039-6.457,0.12l-0.168,0.006l0.514,14.992L246.768,95.104z"/>
	<path d="M158.852,397.385c4.2,2.719,8.565,5.282,12.974,7.62l7.026-13.252c-4.026-2.135-8.013-4.477-11.849-6.96L158.852,397.385z"
		/>
	<path d="M99.955,171.906l13.256,7.02c2.134-4.03,4.474-8.018,6.954-11.852l-12.595-8.146
		C104.854,163.126,102.292,167.493,99.955,171.906z"/>
	<path d="M180.581,112.336l-6.856-13.342c-4.437,2.28-8.833,4.789-13.067,7.456l7.996,12.691
		C172.519,116.707,176.531,114.417,180.581,112.336z"/>
	<path d="M80.204,243.919c-0.137,2.81-0.206,5.66-0.206,8.474c0,2.124,0.039,4.272,0.118,6.435l0.004,0.103l14.991-0.508
		l-0.007-0.191c-0.071-1.932-0.106-3.896-0.106-5.838c0-2.571,0.063-5.177,0.188-7.743L80.204,243.919z"/>
	<path d="M98.953,331.197c2.28,4.441,4.786,8.839,7.449,13.07l12.695-7.99c-2.431-3.862-4.719-7.877-6.8-11.93L98.953,331.197z"/>
	<path d="M384.748,338.063l12.586,8.16c2.72-4.195,5.286-8.56,7.629-12.972l-13.25-7.033
		C389.575,330.247,387.231,334.232,384.748,338.063z"/>
	<path d="M258.231,409.896c-4.638,0.168-9.179,0.137-13.665-0.085l-0.738,14.982c2.832,0.14,5.713,0.21,8.563,0.21
		c2.093,0,4.242-0.039,6.363-0.116l0.095-0.004l-0.259-7.495L258.231,409.896z"/>
	<path d="M424.886,246.237l-0.011-0.339l-14.991,0.512l0.012,0.358c0.071,1.963,0.107,3.927,0.107,5.839
		c0,2.62-0.065,5.281-0.196,7.91l14.982,0.74c0.142-2.873,0.214-5.784,0.214-8.65C425.003,250.516,424.964,248.367,424.886,246.237z
		"/>
	<path d="M326.003,113.171c4.039,2.136,8.026,4.473,11.853,6.946L346,107.521c-4.192-2.711-8.562-5.271-12.985-7.61L326.003,113.171
		z"/>
	<path d="M385.815,168.584c2.436,3.861,4.728,7.873,6.812,11.924l13.338-6.863c-2.283-4.438-4.794-8.833-7.462-13.063
		L385.815,168.584z"/>
	<path d="M324.273,392.74l6.844,13.348c4.448-2.281,8.847-4.785,13.074-7.442l-7.984-12.699
		C332.349,388.372,328.334,390.658,324.273,392.74z"/>
	<path d="M284.81,255.99c0.123-1.147,0.19-2.311,0.19-3.49c0-9.194-3.843-17.501-10-23.419V133.5c0-12.406-10.094-22.5-22.5-22.5
		c-12.407,0-22.5,10.094-22.5,22.5v95.581c-6.157,5.917-10,14.225-10,23.419c0,7.154,2.328,13.771,6.26,19.145l-92.836,85.334
		l10.151,11.043l94.183-86.572c3.748,1.917,7.913,3.125,12.323,3.451l30.643,30.643c4.387,4.386,10.147,6.578,15.909,6.578
		s11.524-2.192,15.911-6.579c8.771-8.773,8.771-23.047,0-31.818L284.81,255.99z M242.579,238.1c0.081-0.056,0.162-0.114,0.244-0.169
		c0.425-0.283,0.86-0.551,1.31-0.797c0.014-0.008,0.028-0.017,0.043-0.025c0.972-0.528,2.001-0.965,3.073-1.303
		c0.062-0.02,0.125-0.035,0.187-0.054c0.445-0.135,0.898-0.25,1.357-0.35c0.13-0.028,0.26-0.054,0.39-0.079
		c0.408-0.079,0.822-0.14,1.24-0.19c0.143-0.017,0.285-0.038,0.429-0.052c0.543-0.051,1.092-0.083,1.649-0.083
		c0.557,0,1.105,0.032,1.649,0.083c0.144,0.013,0.286,0.035,0.429,0.052c0.417,0.05,0.831,0.111,1.239,0.19
		c0.131,0.025,0.262,0.052,0.392,0.079c0.458,0.099,0.911,0.214,1.355,0.349c0.063,0.019,0.126,0.035,0.189,0.054
		c1.072,0.338,2.101,0.775,3.074,1.303c0.013,0.007,0.025,0.015,0.038,0.022c0.452,0.247,0.89,0.516,1.317,0.801
		c0.079,0.053,0.157,0.109,0.236,0.163c4.575,3.16,7.583,8.434,7.583,14.403c0,1.684-0.252,3.307-0.698,4.849
		c-0.05,0.174-0.097,0.349-0.153,0.52c-0.134,0.414-0.284,0.82-0.447,1.22c-0.035,0.086-0.064,0.176-0.101,0.261
		c-0.215,0.503-0.451,0.996-0.711,1.474c-0.014,0.026-0.031,0.051-0.046,0.077c-0.237,0.432-0.495,0.852-0.767,1.26
		c-0.086,0.128-0.177,0.252-0.266,0.377c-0.208,0.296-0.424,0.587-0.65,0.869c-0.124,0.155-0.251,0.307-0.38,0.457
		c-0.203,0.237-0.414,0.466-0.629,0.692c-0.156,0.163-0.311,0.327-0.473,0.484c-0.196,0.191-0.403,0.371-0.608,0.553
		c-0.191,0.168-0.376,0.342-0.574,0.501c-0.116,0.094-0.24,0.177-0.358,0.268c-0.531,0.407-1.083,0.784-1.658,1.129
		c-0.124,0.074-0.244,0.153-0.369,0.225c-0.297,0.169-0.603,0.323-0.91,0.474c-0.147,0.072-0.293,0.145-0.442,0.213
		c-0.308,0.141-0.62,0.273-0.937,0.396c-0.157,0.061-0.316,0.118-0.476,0.175c-0.32,0.114-0.642,0.225-0.97,0.321
		c-0.157,0.046-0.317,0.081-0.476,0.123c-0.653,0.171-1.318,0.303-1.995,0.397c-0.145,0.02-0.287,0.05-0.433,0.066
		c-0.292,0.033-0.589,0.045-0.884,0.064c-0.362,0.022-0.721,0.055-1.089,0.055c-9.649,0-17.5-7.851-17.5-17.5
		C235,246.533,238.006,241.261,242.579,238.1z M245,220.864V133.5c0-4.136,3.364-7.5,7.5-7.5s7.5,3.364,7.5,7.5v87.364
		c-0.235-0.055-0.475-0.095-0.711-0.146c-0.167-0.036-0.334-0.07-0.502-0.103c-0.364-0.071-0.728-0.138-1.095-0.196
		c-0.243-0.039-0.488-0.073-0.734-0.106c-0.313-0.043-0.626-0.086-0.942-0.12c-0.334-0.036-0.672-0.061-1.009-0.087
		c-0.241-0.018-0.481-0.042-0.724-0.055c-0.591-0.032-1.184-0.051-1.783-0.051c-0.598,0-1.192,0.019-1.783,0.051
		c-0.243,0.013-0.484,0.037-0.726,0.055c-0.337,0.026-0.673,0.051-1.007,0.087c-0.316,0.034-0.63,0.078-0.944,0.12
		c-0.244,0.034-0.488,0.067-0.731,0.106c-0.368,0.059-0.733,0.125-1.097,0.197c-0.167,0.033-0.334,0.067-0.5,0.102
		C245.475,220.769,245.236,220.809,245,220.864z M301.938,304.937c-2.926,2.924-7.685,2.924-10.606,0l-23.692-23.691
		c3.908-2.066,7.345-4.904,10.109-8.313c0.069-0.085,0.135-0.173,0.204-0.259c0.292-0.367,0.576-0.739,0.852-1.119
		c0.05-0.069,0.105-0.134,0.155-0.204l22.978,22.979C304.861,297.255,304.86,302.013,301.938,304.937z"/>
</g>
<g>
</g>
<g>
</g>
<g>
</g>
<g>
</g>
<g>
</g>
<g>
</g>
<g>
</g>
<g>
</g>
<g>
</g>
<g>
</g>
<g>
</g>
<g>
</g>
<g>
</g>
<g>
</g>
<g>
</g>
</svg>
