<?xml version="1.0" encoding="iso-8859-1"?>
<!-- Generator: Adobe Illustrator 19.0.0, SVG Export Plug-In . SVG Version: 6.00 Build 0)  -->
<svg version="1.1" id="Layer_1" xmlns="http://www.w3.org/2000/svg" xmlns:xlink="http://www.w3.org/1999/xlink" x="0px" y="0px"
	 viewBox="0 0 509.231 509.231" style="enable-background:new 0 0 509.231 509.231;" xml:space="preserve">
<g>
	<path d="M287.827,55.731c0-19.633-15.973-35.605-35.605-35.605c-19.636,0-35.611,15.973-35.611,35.605v65.447h-44.994v7.5v5.132
		H126.61v7.5v17.763H81.616v139.104l30,72.001v139.053h15V367.179l-30-72.001V174.073h29.994V217.1h15v-43.026v-25.263h30.006V217.1
		h15v-68.289v-12.632h29.994V217.1h15v-80.921v-7.5V55.731c0-11.362,9.246-20.605,20.611-20.605
		c11.362,0,20.605,9.243,20.605,20.605v166.342h48.789v72.453l-45,72.001v142.704h15V370.83l45-72.001v-91.756h-48.789V55.731z"/>
	<polygon points="85.616,97.731 178.116,97.731 178.116,82.731 70.616,82.731 70.616,100 25.417,65.231 70.616,30.463 
		70.616,47.731 178.116,47.731 178.116,32.731 85.616,32.731 85.616,0 0.815,65.231 85.616,130.463 	"/>
	<rect x="103.116" y="55.731" width="15" height="15"/>
	<rect x="133.116" y="55.731" width="15" height="15"/>
	<rect x="163.116" y="55.731" width="15" height="15"/>
	<polygon points="508.417,65.231 423.616,0 423.616,32.731 331.116,32.731 331.116,47.731 438.616,47.731 438.616,30.463 
		483.815,65.231 438.616,100 438.616,82.731 331.116,82.731 331.116,97.731 423.616,97.731 423.616,130.463 	"/>
	<rect x="392.116" y="55.731" width="15" height="15"/>
	<rect x="332.116" y="55.731" width="15" height="15"/>
	<rect x="362.116" y="55.731" width="15" height="15"/>
</g>
<g>
</g>
<g>
</g>
<g>
</g>
<g>
</g>
<g>
</g>
<g>
</g>
<g>
</g>
<g>
</g>
<g>
</g>
<g>
</g>
<g>
</g>
<g>
</g>
<g>
</g>
<g>
</g>
<g>
</g>
</svg>
