<?xml version="1.0" encoding="iso-8859-1"?>
<!-- Generator: Adobe Illustrator 19.0.0, SVG Export Plug-In . SVG Version: 6.00 Build 0)  -->
<svg version="1.1" id="Layer_1" xmlns="http://www.w3.org/2000/svg" xmlns:xlink="http://www.w3.org/1999/xlink" x="0px" y="0px"
	 viewBox="0 0 508.26 508.26" style="enable-background:new 0 0 508.26 508.26;" xml:space="preserve">
<g>
	<path d="M480.07,0h-450C14.906,0,2.57,12.336,2.57,27.5v228.043h15V27.5c0-6.893,5.607-12.5,12.5-12.5h450
		c6.893,0,12.5,5.607,12.5,12.5V294H251.523v15H492.57v54.5c0,6.893-5.607,12.5-12.5,12.5h-167.5h-115h-6.939v15h6.939v36.445
		c0,14.153-9.649,26.183-23.466,29.253c-12.679,2.817-21.534,13.856-21.534,26.845V505h205v-21.457
		c0-12.988-8.855-24.027-21.534-26.845c-13.816-3.07-23.466-15.1-23.466-29.253V391h167.5c15.164,0,27.5-12.336,27.5-27.5V294V27.5
		C507.57,12.336,495.234,0,480.07,0z M332.782,471.341c5.763,1.28,9.788,6.298,9.788,12.202V490h-175v-6.457
		c0-5.904,4.025-10.922,9.788-12.202c20.732-4.607,35.212-22.658,35.212-43.896V391h85v36.445
		C297.57,448.683,312.049,466.733,332.782,471.341z"/>
	<path d="M231.042,292.083l-31.264-16.766l51.037-95.175c7.28-13.575,2.158-30.541-11.417-37.821
		c-13.579-7.282-30.546-2.159-37.825,11.415l-21.522,40.134l-28.832-15.461l-3.907,7.288l-0.433,0.807l-28.84-15.466l-8.682,16.188
		l-28.831-15.461l-48.961,91.302l-5.493,56.207L0.69,360.355l12.76,7.885l27.213-44.042l5.54-56.686l40.455-75.438l15.613,8.372
		l-13.818,25.767l13.219,7.088l13.817-25.767h0l8.682-16.188l15.62,8.376l-22.499,41.957l13.219,7.088l22.499-41.956l0.001,0.001
		l4.34-8.095l15.613,8.372l-26.839,50.051l13.219,7.088l26.839-50.05l0.001,0l28.61-53.354c3.37-6.286,11.231-8.656,17.518-5.285
		s8.658,11.228,5.287,17.514L179.47,281.448l31.264,16.766l-23.651,44.106l-53.463,30.608L59.581,500.74l12.979,7.52l72.017-124.319
		l53.692-30.739L231.042,292.083z"/>
	<path d="M164.028,174.31l14.264-4.641c-9.466-29.102,6.508-60.479,35.609-69.947c29.102-9.465,60.48,6.508,69.947,35.609
		c9.466,29.102-6.508,60.479-35.609,69.947l4.641,14.264c36.966-12.025,57.258-51.884,45.232-88.852
		c-12.026-36.966-51.888-57.261-88.852-45.232C172.294,97.483,152.002,137.342,164.028,174.31z"/>
	<path d="M336.547,154.653l-14.996-0.301c-0.093,4.623-0.539,9.257-1.325,13.773l14.777,2.574
		C335.92,165.434,336.44,160.035,336.547,154.653z"/>
	<path d="M293.736,217.794l10.387,10.822c3.873-3.718,7.489-7.761,10.749-12.019l-11.908-9.119
		C300.165,211.132,297.06,214.604,293.736,217.794z"/>
	<path d="M264.904,52.544l-4.809,14.209c4.357,1.475,8.639,3.301,12.726,5.43l6.93-13.303
		C274.984,56.396,269.988,54.265,264.904,52.544z"/>
	<path d="M330.674,187.354l-14.158-4.954c-1.52,4.345-3.391,8.606-5.561,12.668l13.23,7.068
		C326.718,197.396,328.901,192.423,330.674,187.354z"/>
	<path d="M215,48.218c-5.312,0.812-10.599,2.042-15.714,3.656l4.514,14.305c4.384-1.384,8.914-2.438,13.466-3.133L215,48.218z"/>
	<path d="M232.148,47.005l-0.15,15c4.625,0.046,9.265,0.444,13.789,1.184l2.42-14.803C242.933,47.523,237.531,47.06,232.148,47.005z
		"/>
	<path d="M183.357,58.382c-4.776,2.427-9.41,5.245-13.773,8.379l8.75,12.184c3.744-2.689,7.72-5.107,11.816-7.188L183.357,58.382z"
		/>
	<path d="M317.666,126.113c1.338,4.398,2.346,8.939,2.994,13.496l14.85-2.111c-0.756-5.318-1.932-10.618-3.494-15.752
		L317.666,126.113z"/>
	<path d="M245.005,257.087c5.326-0.703,10.637-1.824,15.784-3.333l-4.217-14.395c-4.413,1.293-8.965,2.254-13.53,2.856
		L245.005,257.087z"/>
	<path d="M145.975,90.126l12.092,8.877c2.725-3.713,5.759-7.246,9.017-10.502L156.48,77.892
		C152.684,81.685,149.15,85.802,145.975,90.126z"/>
	<path d="M125.57,152.5h15c0-4.624,0.352-9.268,1.046-13.804l-14.828-2.268C125.98,141.712,125.57,147.119,125.57,152.5z"/>
	<path d="M130.773,119.69l14.258,4.662c1.43-4.374,3.212-8.674,5.298-12.78l-13.373-6.793
		C134.522,109.57,132.442,114.588,130.773,119.69z"/>
	<path d="M305.162,100.519c2.65,3.769,5.027,7.769,7.066,11.888l13.443-6.656c-2.378-4.803-5.15-9.465-8.238-13.858L305.162,100.519
		z"/>
	<path d="M276.851,247.573c4.825-2.327,9.517-5.051,13.942-8.095l-8.5-12.359c-3.798,2.612-7.82,4.948-11.958,6.944L276.851,247.573
		z"/>
	<path d="M285.311,80.049c3.684,2.762,7.187,5.831,10.409,9.122l10.717-10.496c-3.755-3.834-7.836-7.409-12.128-10.628
		L285.311,80.049z"/>
</g>
<g>
</g>
<g>
</g>
<g>
</g>
<g>
</g>
<g>
</g>
<g>
</g>
<g>
</g>
<g>
</g>
<g>
</g>
<g>
</g>
<g>
</g>
<g>
</g>
<g>
</g>
<g>
</g>
<g>
</g>
</svg>
