<?xml version="1.0" encoding="iso-8859-1"?>
<!-- Generator: Adobe Illustrator 19.0.0, SVG Export Plug-In . SVG Version: 6.00 Build 0)  -->
<svg version="1.1" id="Layer_1" xmlns="http://www.w3.org/2000/svg" xmlns:xlink="http://www.w3.org/1999/xlink" x="0px" y="0px"
	 viewBox="0 0 508.709 508.709" style="enable-background:new 0 0 508.709 508.709;" xml:space="preserve">
<g>
	<path d="M454.001,362.854v-321H134.423l48.971,75h195.607v246h-54.707l92.207,141.218l92.208-141.218H454.001z M352.002,377.854
		h41.999v-276H191.514l-29.382-45h276.87v321H481l-64.499,98.782L352.002,377.854z"/>
	<path d="M129.708,391.854v-246h54.707L92.208,4.637L0,145.854h54.708v321h319.579l-48.971-75H129.708z M69.708,451.854v-321H27.708
		l64.499-98.782l64.499,98.782h-41.999v276h202.487l29.382,45H69.708z"/>
	<path d="M177.354,254.354h-15c0,48.248,39.252,87.5,87.5,87.5v-15C209.878,326.854,177.354,294.331,177.354,254.354z"/>
	<path d="M322.354,254.354h15c0-48.248-39.252-87.5-87.5-87.5v15C289.831,181.854,322.354,214.378,322.354,254.354z"/>
	<rect x="84.354" y="276.354" width="15" height="15"/>
	<rect x="84.354" y="216.354" width="15" height="15"/>
	<rect x="84.354" y="186.354" width="15" height="15"/>
	<rect x="84.354" y="246.354" width="15" height="15"/>
	<rect x="84.354" y="306.354" width="15" height="15"/>
	<rect x="409.354" y="216.354" width="15" height="15"/>
	<rect x="409.354" y="276.354" width="15" height="15"/>
	<rect x="409.354" y="306.354" width="15" height="15"/>
	<rect x="409.354" y="246.354" width="15" height="15"/>
	<rect x="409.354" y="186.354" width="15" height="15"/>
	<path d="M212.354,254.354h15c0-12.406,10.093-22.5,22.5-22.5v-15C229.177,216.854,212.354,233.677,212.354,254.354z"/>
	<path d="M249.854,291.854c20.678,0,37.5-16.822,37.5-37.5h-15c0,12.406-10.093,22.5-22.5,22.5V291.854z"/>
</g>
<g>
</g>
<g>
</g>
<g>
</g>
<g>
</g>
<g>
</g>
<g>
</g>
<g>
</g>
<g>
</g>
<g>
</g>
<g>
</g>
<g>
</g>
<g>
</g>
<g>
</g>
<g>
</g>
<g>
</g>
</svg>
