<?xml version="1.0" encoding="iso-8859-1"?>
<!-- Generator: Adobe Illustrator 19.0.0, SVG Export Plug-In . SVG Version: 6.00 Build 0)  -->
<svg version="1.1" id="Layer_1" xmlns="http://www.w3.org/2000/svg" xmlns:xlink="http://www.w3.org/1999/xlink" x="0px" y="0px"
	 viewBox="0 0 505 505" style="enable-background:new 0 0 505 505;" xml:space="preserve">
<g>
	<rect x="62.5" y="65" width="15" height="15"/>
	<rect x="92.5" y="65" width="15" height="15"/>
	<rect x="32.5" y="65" width="15" height="15"/>
	<rect x="318.5" y="65" width="15" height="15"/>
	<rect x="459.5" y="65" width="15" height="15"/>
	<path d="M372.865,35H0v60v375h505V35H372.865z M365.365,50l-22.5,45H229.635l22.5-45H365.365z M15,50h220.365l-22.5,45H15V50z
		 M490,455H15V110h337.135l30-60H490V455z"/>
	<path d="M95,297h315V162H95V297z M110,177h285v105H110V177z"/>
	<rect x="152.5" y="343" width="200" height="15"/>
	<rect x="192.5" y="379" width="120" height="15"/>
</g>
<g>
</g>
<g>
</g>
<g>
</g>
<g>
</g>
<g>
</g>
<g>
</g>
<g>
</g>
<g>
</g>
<g>
</g>
<g>
</g>
<g>
</g>
<g>
</g>
<g>
</g>
<g>
</g>
<g>
</g>
</svg>
