<?xml version="1.0" encoding="iso-8859-1"?>
<!-- Generator: Adobe Illustrator 19.0.0, SVG Export Plug-In . SVG Version: 6.00 Build 0)  -->
<svg version="1.1" id="Layer_1" xmlns="http://www.w3.org/2000/svg" xmlns:xlink="http://www.w3.org/1999/xlink" x="0px" y="0px"
	 viewBox="0 0 505 505" style="enable-background:new 0 0 505 505;" xml:space="preserve">
<g>
	<path d="M375,238.5c0,67.547-54.953,122.5-122.5,122.5S130,306.047,130,238.5v-51h-15v51c0,68.156,49.849,124.878,115,135.649V460
		h-45v30h-42.5v15H185h135h42.5v-15H320v-30h-45v-85.851c65.151-10.771,115-67.493,115-135.649v-51h-15V238.5z M305,475v15H200v-15
		h30h45H305z M260,460h-15v-84.207c2.484,0.134,4.983,0.207,7.5,0.207s5.016-0.073,7.5-0.207V460z"/>
	<path d="M252.5,336c53.762,0,97.5-43.738,97.5-97.5v-141C350,43.738,306.262,0,252.5,0S155,43.738,155,97.5v141
		C155,292.262,198.738,336,252.5,336z M170,97.5c0-45.49,37.01-82.5,82.5-82.5S335,52.01,335,97.5v141c0,45.49-37.01,82.5-82.5,82.5
		S170,283.99,170,238.5V97.5z"/>
	<rect x="245" y="78" width="15" height="180"/>
	<rect x="192.5" y="161" width="30" height="15"/>
	<rect x="192.5" y="101" width="30" height="15"/>
	<rect x="192.5" y="221" width="30" height="15"/>
	<rect x="282.5" y="161" width="30" height="15"/>
	<rect x="282.5" y="101" width="30" height="15"/>
	<rect x="282.5" y="221" width="30" height="15"/>
	<rect x="85" y="187.5" width="15" height="50"/>
	<rect x="405" y="187.5" width="15" height="50"/>
	<path d="M46.616,74.917l14.846,2.141c0.675-4.678,1.596-9.377,2.738-13.967l-14.557-3.622
		C48.381,64.545,47.362,69.742,46.616,74.917z"/>
	<path d="M54.213,44.401l14.117,5.07c1.599-4.45,3.442-8.871,5.479-13.139L60.274,29.87C58.021,34.59,55.98,39.479,54.213,44.401z"
		/>
	<rect x="45" y="120.906" width="15" height="15"/>
	<path d="M45,97.5v8.406h15V97.5c0-2.083,0.046-4.191,0.136-6.266l-14.986-0.65C45.051,92.875,45,95.202,45,97.5z"/>
	<path d="M76.583,2.99c-3.146,4.181-6.114,8.565-8.825,13.033l12.824,7.781c2.453-4.044,5.141-8.012,7.987-11.795L76.583,2.99z"/>
	<path d="M455.746,61.068l-14.594,3.471c1.094,4.597,1.966,9.309,2.592,14.003l14.868-1.984
		C457.92,71.365,456.955,66.153,455.746,61.068z"/>
	<rect x="445" y="122.5" width="15" height="15"/>
	<path d="M459.913,92.245l-14.992,0.502c0.053,1.562,0.079,3.16,0.079,4.753v10h15v-10C460,95.741,459.971,93.973,459.913,92.245z"
		/>
	<path d="M429.39,4.296l-12.08,8.893c2.811,3.817,5.458,7.814,7.868,11.88l12.902-7.648C435.418,12.928,432.493,8.512,429.39,4.296z
		"/>
	<path d="M445.422,31.349l-13.604,6.32c1.996,4.297,3.795,8.737,5.345,13.2l14.17-4.922C449.618,41.011,447.629,36.1,445.422,31.349
		z"/>
	<path d="M382.642,18.674c-3.278-4.156-6.85-8.147-10.614-11.863L361.49,17.486c3.324,3.281,6.479,6.808,9.376,10.479
		L382.642,18.674z"/>
	<path d="M385.372,51.979l13.707-6.092c-2.147-4.832-4.627-9.584-7.37-14.123l-12.838,7.756
		C381.291,43.525,383.478,47.717,385.372,51.979z"/>
	<path d="M404.622,60.827l-14.363,4.322c1.345,4.47,2.419,9.072,3.192,13.681l14.793-2.482
		C407.367,71.119,406.148,65.897,404.622,60.827z"/>
	<path d="M395,107.5h15v-10c0-1.769-0.037-3.554-0.109-5.307l-14.986,0.617C394.968,94.358,395,95.937,395,97.5V107.5z"/>
	<rect x="395" y="122.5" width="15" height="15"/>
	<rect x="95" y="122.5" width="15" height="15"/>
	<path d="M126.129,39.521l-12.838-7.758c-2.742,4.538-5.222,9.289-7.37,14.123l13.707,6.092
		C121.522,47.716,123.71,43.524,126.129,39.521z"/>
	<path d="M96.756,76.348l14.793,2.482c0.773-4.608,1.848-9.211,3.192-13.681l-14.363-4.322
		C98.852,65.897,97.633,71.119,96.756,76.348z"/>
	<path d="M143.509,17.486L132.972,6.811c-3.765,3.716-7.336,7.707-10.614,11.863l11.775,9.291
		C137.029,24.294,140.185,20.768,143.509,17.486z"/>
	<path d="M95,97.5v10h15v-10c0-1.563,0.032-3.142,0.096-4.689l-14.986-0.617C95.037,93.946,95,95.731,95,97.5z"/>
</g>
<g>
</g>
<g>
</g>
<g>
</g>
<g>
</g>
<g>
</g>
<g>
</g>
<g>
</g>
<g>
</g>
<g>
</g>
<g>
</g>
<g>
</g>
<g>
</g>
<g>
</g>
<g>
</g>
<g>
</g>
</svg>
