<?xml version="1.0" encoding="iso-8859-1"?>
<!-- Generator: Adobe Illustrator 19.0.0, SVG Export Plug-In . SVG Version: 6.00 Build 0)  -->
<svg version="1.1" id="Layer_1" xmlns="http://www.w3.org/2000/svg" xmlns:xlink="http://www.w3.org/1999/xlink" x="0px" y="0px"
	 viewBox="0 0 506.123 506.123" style="enable-background:new 0 0 506.123 506.123;" xml:space="preserve">
<g>
	<path d="M450.562,391.123v60h-395v-60h-55v115h505v-115H450.562z M490.562,491.123h-475v-85h25v60h425v-60h25V491.123z"/>
	<polygon points="185.562,393.623 200.562,393.623 200.562,181.123 137.926,181.123 253.062,25.246 368.197,181.123 
		305.562,181.123 305.562,393.623 320.562,393.623 320.562,196.123 397.926,196.123 253.062,0 108.197,196.123 185.562,196.123 	"/>
	<rect x="245.562" y="242.623" width="15" height="15"/>
	<rect x="245.562" y="182.623" width="15" height="15"/>
	<rect x="245.562" y="212.623" width="15" height="15"/>
	<rect x="245.562" y="332.623" width="15" height="15"/>
	<rect x="245.562" y="302.623" width="15" height="15"/>
	<rect x="245.562" y="362.623" width="15" height="15"/>
	<rect x="245.562" y="272.623" width="15" height="15"/>
	<rect x="365.562" y="301.623" width="15" height="15"/>
	<rect x="365.562" y="331.623" width="15" height="15"/>
	<rect x="365.562" y="361.623" width="15" height="15"/>
	<rect x="395.562" y="392.623" width="15" height="15"/>
	<rect x="395.562" y="362.623" width="15" height="15"/>
	<rect x="395.562" y="332.623" width="15" height="15"/>
	<rect x="124.562" y="301.623" width="15" height="15"/>
	<rect x="124.562" y="331.623" width="15" height="15"/>
	<rect x="124.562" y="361.623" width="15" height="15"/>
	<rect x="94.562" y="332.623" width="15" height="15"/>
	<rect x="94.562" y="362.623" width="15" height="15"/>
	<rect x="94.562" y="392.623" width="15" height="15"/>
	<rect x="305.562" y="408.623" width="15" height="15"/>
	<rect x="185.562" y="408.623" width="15" height="15"/>
</g>
<g>
</g>
<g>
</g>
<g>
</g>
<g>
</g>
<g>
</g>
<g>
</g>
<g>
</g>
<g>
</g>
<g>
</g>
<g>
</g>
<g>
</g>
<g>
</g>
<g>
</g>
<g>
</g>
<g>
</g>
</svg>
