<?xml version="1.0" encoding="iso-8859-1"?>
<!-- Generator: Adobe Illustrator 19.0.0, SVG Export Plug-In . SVG Version: 6.00 Build 0)  -->
<svg version="1.1" id="Layer_1" xmlns="http://www.w3.org/2000/svg" xmlns:xlink="http://www.w3.org/1999/xlink" x="0px" y="0px"
	 viewBox="0 0 505 505" style="enable-background:new 0 0 505 505;" xml:space="preserve">
<g>
	<polygon points="337.779,100.046 261.765,176.06 272.372,186.667 358.992,100.046 328.639,69.692 456.642,48.358 435.308,176.361 
		404.955,146.008 318.334,232.628 328.94,243.235 404.955,167.221 445.312,207.578 474.89,30.11 297.422,59.688 	"/>
	<rect x="325.683" y="164.317" transform="matrix(0.7071 -0.7071 0.7071 0.7071 -23.9085 285.9117)" width="15" height="15"/>
	<rect x="304.47" y="185.53" transform="matrix(0.7071 -0.7071 0.7071 0.7071 -45.1189 277.133)" width="15" height="15"/>
	<rect x="368.109" y="121.89" transform="matrix(0.7071 -0.7071 0.7071 0.7071 18.5208 303.4934)" width="15" height="15"/>
	<rect x="346.896" y="143.103" transform="matrix(0.7071 -0.7071 0.7071 0.7071 -2.6922 294.7064)" width="15" height="15"/>
	<rect x="181.943" y="218.057" transform="matrix(-0.7071 -0.7071 0.7071 -0.7071 317.5458 582.6461)" width="195" height="15"/>
	<polygon points="167.221,404.954 243.235,328.94 232.628,318.333 146.008,404.954 176.361,435.308 48.358,456.642 69.692,328.639 
		100.045,358.992 186.666,272.372 176.06,261.765 100.045,337.779 59.688,297.422 30.11,474.89 207.578,445.312 	"/>
	<rect x="164.317" y="325.683" transform="matrix(-0.7071 0.7071 -0.7071 -0.7071 528.9036 447.2943)" width="15" height="15"/>
	<rect x="143.104" y="346.897" transform="matrix(-0.7071 0.7071 -0.7071 -0.7071 507.6936 498.5004)" width="15" height="15"/>
	<rect x="185.53" y="304.47" transform="matrix(0.7071 0.7071 -0.7071 0.7071 277.15 -45.1152)" width="15" height="15"/>
	<rect x="121.891" y="368.11" transform="matrix(-0.7071 0.7071 -0.7071 -0.7071 486.4799 549.7131)" width="15" height="15"/>
	<rect x="128.057" y="271.943" transform="matrix(-0.7071 -0.7071 0.7071 -0.7071 187.4542 636.5318)" width="195" height="15"/>
	<polygon points="15,247.5 0,247.5 0,505 257.5,505 257.5,490 15,490 	"/>
	<polygon points="247.5,0 247.5,15 490,15 490,257.5 505,257.5 505,0 	"/>
</g>
<g>
</g>
<g>
</g>
<g>
</g>
<g>
</g>
<g>
</g>
<g>
</g>
<g>
</g>
<g>
</g>
<g>
</g>
<g>
</g>
<g>
</g>
<g>
</g>
<g>
</g>
<g>
</g>
<g>
</g>
</svg>
