<?xml version="1.0" encoding="iso-8859-1"?>
<!-- Generator: Adobe Illustrator 19.0.0, SVG Export Plug-In . SVG Version: 6.00 Build 0)  -->
<svg version="1.1" id="Layer_1" xmlns="http://www.w3.org/2000/svg" xmlns:xlink="http://www.w3.org/1999/xlink" x="0px" y="0px"
	 viewBox="0 0 490 490" style="enable-background:new 0 0 490 490;" xml:space="preserve">
<g>
	<path d="M245,117.5c-70.304,0-127.5,57.196-127.5,127.5S174.696,372.5,245,372.5S372.5,315.304,372.5,245S315.304,117.5,245,117.5z
		 M245,357.5c-62.033,0-112.5-50.468-112.5-112.5S182.967,132.5,245,132.5S357.5,182.968,357.5,245S307.033,357.5,245,357.5z"/>
	<rect x="237.5" y="60" width="15" height="15"/>
	<rect x="237.5" width="15" height="15"/>
	<rect x="237.5" y="30" width="15" height="15"/>
	<rect x="237.5" y="415" width="15" height="15"/>
	<rect x="237.5" y="445" width="15" height="15"/>
	<rect x="237.5" y="475" width="15" height="15"/>
	<rect x="363.011" y="111.989" transform="matrix(0.7071 0.7071 -0.7071 0.7071 193.0275 -227.0017)" width="15" height="15"/>
	<rect x="384.224" y="90.776" transform="matrix(-0.7071 -0.7071 0.7071 -0.7071 599.2083 444.7681)" width="15" height="15"/>
	<rect x="405.438" y="69.562" transform="matrix(0.7071 0.7071 -0.7071 0.7071 175.4537 -269.4311)" width="15" height="15"/>
	<rect x="90.775" y="384.225" transform="matrix(-0.7071 -0.7071 0.7071 -0.7071 -109.2408 738.1982)" width="15" height="15"/>
	<rect x="111.988" y="363.011" transform="matrix(-0.7071 -0.7071 0.7071 -0.7071 -58.0273 716.9852)" width="15" height="15"/>
	<rect x="69.562" y="405.438" transform="matrix(-0.7071 -0.7071 0.7071 -0.7071 -160.4541 759.4094)" width="15" height="15"/>
	<rect x="69.562" y="69.562" transform="matrix(0.7071 0.7071 -0.7071 0.7071 77.0596 -31.9203)" width="15" height="15"/>
	<rect x="90.775" y="90.776" transform="matrix(-0.7071 0.7071 -0.7071 -0.7071 237.2581 98.2698)" width="15" height="15"/>
	<rect x="111.989" y="111.989" transform="matrix(0.7071 0.7071 -0.7071 0.7071 119.4888 -49.4939)" width="15" height="15"/>
	<rect x="363.011" y="363.011" transform="matrix(0.7071 -0.7071 0.7071 0.7071 -153.4707 370.5355)" width="15" height="15"/>
	<rect x="384.225" y="384.225" transform="matrix(-0.7071 -0.7071 0.7071 -0.7071 391.7243 945.7077)" width="15" height="15"/>
	<rect x="405.438" y="405.438" transform="matrix(-0.7071 -0.7071 0.7071 -0.7071 412.938 996.9205)" width="15" height="15"/>
	<rect y="237.5" width="15" height="15"/>
	<rect x="60" y="237.5" width="15" height="15"/>
	<rect x="30" y="237.5" width="15" height="15"/>
	<rect x="475" y="237.5" width="15" height="15"/>
	<rect x="445" y="237.5" width="15" height="15"/>
	<rect x="415" y="237.5" width="15" height="15"/>
</g>
<g>
</g>
<g>
</g>
<g>
</g>
<g>
</g>
<g>
</g>
<g>
</g>
<g>
</g>
<g>
</g>
<g>
</g>
<g>
</g>
<g>
</g>
<g>
</g>
<g>
</g>
<g>
</g>
<g>
</g>
</svg>
