<?xml version="1.0" encoding="iso-8859-1"?>
<!-- Generator: Adobe Illustrator 19.0.0, SVG Export Plug-In . SVG Version: 6.00 Build 0)  -->
<svg version="1.1" id="Layer_1" xmlns="http://www.w3.org/2000/svg" xmlns:xlink="http://www.w3.org/1999/xlink" x="0px" y="0px"
	 viewBox="0 0 505 505" style="enable-background:new 0 0 505 505;" xml:space="preserve">
<g>
	<path d="M450,213.296V0H55v213.296L0,253.704V505h505V253.704L450,213.296z M188.978,339.674L15,481.696V268.662L188.978,339.674z
		 M252.5,307.182L476.453,490H28.547L252.5,307.182z M316.022,339.674L490,268.662v213.034L316.022,339.674z M70,254.5V15h365v239.5
		h15v-22.592l32.268,23.708l-179.477,73.256L252.5,287.818l-50.291,41.054L22.732,255.616L55,231.908V254.5H70z"/>
	<path d="M252.5,243v-15c-21.448,0-41.416-8.601-56.225-24.219c-14.791-15.6-22.307-36.022-21.163-57.507
		c2.074-38.951,34.211-71.088,73.162-73.162c21.474-1.156,41.906,6.371,57.507,21.163C321.399,109.084,330,129.052,330,150.5v16
		c0,9.649-7.851,17.5-17.5,17.5s-17.5-7.851-17.5-17.5v-16c0-23.435-19.065-42.5-42.5-42.5S210,127.065,210,150.5
		s19.065,42.5,42.5,42.5c11.948,0,22.752-4.963,30.481-12.927C288.133,191.233,299.423,199,312.5,199
		c17.921,0,32.5-14.579,32.5-32.5v-16c0-25.606-10.263-49.44-28.897-67.109c-18.617-17.651-43-26.634-68.625-25.257
		c-22.693,1.208-44.119,10.802-60.33,27.014c-16.212,16.211-25.806,37.637-27.014,60.33c-1.365,25.637,7.604,50.008,25.257,68.625
		C203.06,232.737,226.894,243,252.5,243z M252.5,178c-15.163,0-27.5-12.337-27.5-27.5s12.337-27.5,27.5-27.5s27.5,12.337,27.5,27.5
		S267.663,178,252.5,178z"/>
	<rect x="267.5" y="228" width="15" height="15"/>
	<rect x="297.5" y="228" width="15" height="15"/>
	<rect x="327.5" y="228" width="15" height="15"/>
</g>
<g>
</g>
<g>
</g>
<g>
</g>
<g>
</g>
<g>
</g>
<g>
</g>
<g>
</g>
<g>
</g>
<g>
</g>
<g>
</g>
<g>
</g>
<g>
</g>
<g>
</g>
<g>
</g>
<g>
</g>
</svg>
