<?xml version="1.0" encoding="iso-8859-1"?>
<!-- Generator: Adobe Illustrator 19.0.0, SVG Export Plug-In . SVG Version: 6.00 Build 0)  -->
<svg version="1.1" id="Layer_1" xmlns="http://www.w3.org/2000/svg" xmlns:xlink="http://www.w3.org/1999/xlink" x="0px" y="0px"
	 viewBox="0 0 503.46 503.46" style="enable-background:new 0 0 503.46 503.46;" xml:space="preserve">
<g>
	<path d="M297.692,181.019l-45.962,45.962l42.427,42.427L152.028,411.537l-60.104-60.104l53.74-53.74L99.702,251.73L0,351.432
		l152.028,152.027L386.08,269.408L297.692,181.019z M21.213,351.432l78.489-78.489l24.749,24.749l-53.74,53.74l81.317,81.317
		L315.37,269.408l-42.427-42.427l24.749-24.749l67.175,67.176L152.028,482.247L21.213,351.432z"/>
	<path d="M205.061,321.734l45.962-45.962l-41.72-41.72L351.432,91.923l60.104,60.104l-53.74,53.74l45.961,45.962l99.702-99.702
		L351.432,0L117.38,234.052L205.061,321.734z M482.247,152.028l-78.489,78.489l-24.749-24.749l53.74-53.74L351.432,70.71
		L188.09,234.052l41.72,41.72l-24.749,24.749l-66.468-66.469L351.432,21.213L482.247,152.028z"/>
	
		<rect x="112.709" y="112.708" transform="matrix(0.7071 0.7071 -0.7071 0.7071 120.2006 -49.7918)" width="14.999" height="15.001"/>
	<rect x="133.921" y="91.495" transform="matrix(0.7071 0.7071 -0.7071 0.7071 111.4293 -71.0064)" width="15" height="15"/>
	<rect x="91.495" y="133.922" transform="matrix(0.7071 0.7071 -0.7071 0.7071 129.0032 -28.5772)" width="15" height="15"/>
	<rect x="396.258" y="353.831" transform="matrix(-0.7071 -0.7071 0.7071 -0.7071 433.7332 902.332)" width="15" height="15"/>
	<rect x="353.831" y="396.258" transform="matrix(-0.7071 -0.7071 0.7071 -0.7071 331.3067 944.7563)" width="15" height="15"/>
	
		<rect x="375.045" y="375.044" transform="matrix(-0.7071 -0.7071 0.7071 -0.7071 382.5698 923.5441)" width="14.999" height="15.001"/>
</g>
<g>
</g>
<g>
</g>
<g>
</g>
<g>
</g>
<g>
</g>
<g>
</g>
<g>
</g>
<g>
</g>
<g>
</g>
<g>
</g>
<g>
</g>
<g>
</g>
<g>
</g>
<g>
</g>
<g>
</g>
</svg>
