<?xml version="1.0" encoding="iso-8859-1"?>
<!-- Generator: Adobe Illustrator 19.0.0, SVG Export Plug-In . SVG Version: 6.00 Build 0)  -->
<svg version="1.1" id="Layer_1" xmlns="http://www.w3.org/2000/svg" xmlns:xlink="http://www.w3.org/1999/xlink" x="0px" y="0px"
	 viewBox="0 0 505 505" style="enable-background:new 0 0 505 505;" xml:space="preserve">
<g>
	<path d="M205,170.502h-30v135h155v-135h-30v-48h-15v48h-65v-48h-15V170.502z M315,290.502H190v-105h125V290.502z"/>
	<rect x="205" y="92.502" width="15" height="15"/>
	<rect x="285" y="92.502" width="15" height="15"/>
	<rect x="202.5" y="321.002" width="100" height="15"/>
	<rect x="217.5" y="351.002" width="70" height="15"/>
	<path d="M431.044,73.958C383.354,26.267,319.945,0.002,252.5,0.002S121.646,26.267,73.956,73.958
		C26.265,121.648,0,185.057,0,252.502c0,133.286,104.124,243.984,237.048,252.016l7.952,0.48V381.502h-15v107.43
		C108.804,477.546,15,375.199,15,252.502c0-130.958,106.542-237.5,237.5-237.5S490,121.544,490,252.502
		c0,122.697-93.804,225.044-215,236.43v-107.43h-15v123.496l7.952-0.48C400.876,496.486,505,385.788,505,252.502
		C505,185.057,478.735,121.648,431.044,73.958z"/>
</g>
<g>
</g>
<g>
</g>
<g>
</g>
<g>
</g>
<g>
</g>
<g>
</g>
<g>
</g>
<g>
</g>
<g>
</g>
<g>
</g>
<g>
</g>
<g>
</g>
<g>
</g>
<g>
</g>
<g>
</g>
</svg>
